<?xml version="1.0" encoding="utf-8"?>
<!-- Generator: Adobe Illustrator 16.0.0, SVG Export Plug-In . SVG Version: 6.00 Build 0)  -->
<!DOCTYPE svg PUBLIC "-//W3C//DTD SVG 1.1 Basic//EN" "http://www.w3.org/Graphics/SVG/1.1/DTD/svg11-basic.dtd">
<svg version="1.1" baseProfile="basic" id="Layer_1"
	 xmlns="http://www.w3.org/2000/svg" xmlns:xlink="http://www.w3.org/1999/xlink" x="0px" y="0px" width="100px" height="100px"
	 viewBox="0 0 100 100" xml:space="preserve">
<g>
	
		<path fill="#FFFFFF" stroke="#85D7F5" stroke-width="2" stroke-linecap="round" stroke-linejoin="round" stroke-miterlimit="10" d="
		M45.544,42.664c0,2.596-2.104,4.7-4.7,4.7H7.063c-2.596,0-4.7-2.104-4.7-4.7V8.882c0-2.596,2.104-4.7,4.7-4.7h33.781
		c2.596,0,4.7,2.104,4.7,4.7V42.664z"/>
	
		<circle fill="#FFFFFF" stroke="#00ABEC" stroke-width="2" stroke-linecap="round" stroke-linejoin="round" stroke-miterlimit="10" cx="17.638" cy="25.773" r="7.931"/>
	
		<circle fill="none" stroke="#85D7F5" stroke-width="2" stroke-linecap="round" stroke-linejoin="round" stroke-miterlimit="10" cx="28.507" cy="25.773" r="7.932"/>
	
		<path fill="#FFFFFF" stroke="#85D7F5" stroke-width="2" stroke-linecap="round" stroke-linejoin="round" stroke-miterlimit="10" d="
		M96.3,42.664c0,2.596-2.104,4.7-4.7,4.7H57.818c-2.596,0-4.7-2.104-4.7-4.7V8.882c0-2.596,2.104-4.7,4.7-4.7H91.6
		c2.598,0,4.7,2.104,4.7,4.7V42.664L96.3,42.664z"/>
	
		<rect x="63.84" y="26.067" fill="#FFFFFF" stroke="#85D7F5" stroke-width="2" stroke-linecap="round" stroke-linejoin="round" stroke-miterlimit="10" width="7.639" height="9.136"/>
	
		<rect x="76.766" y="13.729" fill="#FFFFFF" stroke="#00ABEC" stroke-width="2" stroke-linecap="round" stroke-linejoin="round" stroke-miterlimit="10" width="7.639" height="21.474"/>
	
		<line fill="none" stroke="#00ABEC" stroke-width="2" stroke-linecap="round" stroke-linejoin="round" stroke-miterlimit="10" x1="58.552" y1="35.203" x2="88.516" y2="35.203"/>
	
		<path fill="#FFFFFF" stroke="#00ABEC" stroke-width="2" stroke-linecap="round" stroke-linejoin="round" stroke-miterlimit="10" d="
		M94.604,90.588c0,2.596-2.104,4.7-4.699,4.7H7.063c-2.596,0-4.7-2.104-4.7-4.7V59.044c0-2.597,2.104-4.7,4.7-4.7h82.841
		c2.596,0,4.699,2.104,4.699,4.7V90.588z"/>
	
		<circle fill="none" stroke="#85D7F5" stroke-width="2" stroke-linecap="round" stroke-linejoin="round" stroke-miterlimit="10" cx="19.923" cy="67.325" r="4.113"/>
	
		<circle fill="none" stroke="#85D7F5" stroke-width="2" stroke-linecap="round" stroke-linejoin="round" stroke-miterlimit="10" cx="39.255" cy="74.262" r="4.113"/>
	
		<circle fill="none" stroke="#85D7F5" stroke-width="2" stroke-linecap="round" stroke-linejoin="round" stroke-miterlimit="10" cx="57.93" cy="68.577" r="4.113"/>
	
		<line fill="none" stroke="#85D7F5" stroke-width="2" stroke-linecap="round" stroke-linejoin="round" stroke-miterlimit="10" x1="24.036" y1="70.148" x2="35.142" y2="74.262"/>
	
		<line fill="none" stroke="#85D7F5" stroke-width="2" stroke-linecap="round" stroke-linejoin="round" stroke-miterlimit="10" x1="43.368" y1="74.262" x2="55.993" y2="72.205"/>
	
		<line fill="none" stroke="#00ABEC" stroke-width="2" stroke-linecap="round" stroke-linejoin="round" stroke-miterlimit="10" x1="15.81" y1="86.419" x2="66.631" y2="86.419"/>
	
		<line fill="none" stroke="#85D7F5" stroke-width="2" stroke-linecap="round" stroke-linejoin="round" stroke-miterlimit="10" x1="73.975" y1="67.325" x2="90.426" y2="67.325"/>
	
		<line fill="none" stroke="#85D7F5" stroke-width="2" stroke-linecap="round" stroke-linejoin="round" stroke-miterlimit="10" x1="73.975" y1="76.432" x2="90.426" y2="76.432"/>
	
		<line fill="none" stroke="#85D7F5" stroke-width="2" stroke-linecap="round" stroke-linejoin="round" stroke-miterlimit="10" x1="73.975" y1="86.419" x2="88.957" y2="86.419"/>
</g>
</svg>
