<?xml version="1.0" encoding="iso-8859-1"?>
<!-- Generator: Adobe Illustrator 19.0.0, SVG Export Plug-In . SVG Version: 6.00 Build 0)  -->
<svg version="1.1" id="Layer_1" xmlns="http://www.w3.org/2000/svg" xmlns:xlink="http://www.w3.org/1999/xlink" x="0px" y="0px"
	 viewBox="0 0 512.005 512.005" style="enable-background:new 0 0 512.005 512.005;" xml:space="preserve">
<polygon style="fill:#CCCCCC;" points="281.696,445.164 206.19,445.164 212.513,418.831 218.621,393.424 269.277,393.424 
	275.374,418.831 "/>
<polygon style="fill:#999999;" points="275.374,418.831 212.513,418.831 218.621,393.424 242.635,367.263 269.277,393.424 "/>
<path style="fill:#CCCCCC;" d="M445.292,121.986v244.789c0,14.717-11.932,26.647-26.647,26.647H69.251
	c-14.717,0-26.647-11.932-26.647-26.647V121.986c0-14.717,11.932-26.647,26.647-26.647h349.394
	C433.361,95.339,445.292,107.27,445.292,121.986z"/>
<path style="fill:#E6E6E6;" d="M445.292,121.988v244.789c0,14.717-11.932,26.647-26.647,26.647H204.579L288.155,95.34h130.49
	C433.362,95.34,445.292,107.271,445.292,121.988z"/>
<rect x="42.601" y="131.893" style="fill:#9BD7F4;" width="402.69" height="224.974"/>
<polygon style="fill:#C8EDFC;" points="445.292,131.896 445.292,356.868 214.829,356.868 277.905,131.896 "/>
<rect x="177.168" y="435.097" style="fill:#E6E6E6;" width="133.577" height="17.086"/>
<g>
	<rect x="42.601" y="352.311" style="fill:#B3B3B3;" width="402.69" height="9.112"/>
	<rect x="42.601" y="127.337" style="fill:#B3B3B3;" width="402.69" height="9.112"/>
</g>
<path style="fill:#666666;" d="M512,61.851v202.171c0,10.103-8.19,18.282-18.282,18.282H393.595
	c-10.103,0-18.282-8.178-18.282-18.282V61.851c0-10.103,8.178-18.282,18.282-18.282h100.123C503.81,43.569,512,51.748,512,61.851z"
	/>
<path style="fill:#999999;" d="M512,61.851v202.171c0,10.103-8.19,18.282-18.282,18.282h-86.625l66.931-238.734h19.694
	C503.81,43.569,512,51.748,512,61.851z"/>
<rect x="375.318" y="89.805" style="fill:#F9C573;" width="136.686" height="146.266"/>
<polygon style="fill:#FCD8A9;" points="512,89.802 512,236.069 420.056,236.069 461.061,89.802 "/>
<path style="fill:#666666;" d="M183.205,247.983v202.171c0,10.092-8.19,18.282-18.282,18.282H18.282
	C8.178,468.435,0,460.245,0,450.153V247.983c0-10.103,8.178-18.293,18.282-18.293h146.642
	C175.016,229.69,183.205,237.879,183.205,247.983z"/>
<rect y="275.937" style="fill:#F94B54;" width="183.205" height="146.254"/>
<path style="fill:#999999;" d="M183.205,247.983v202.171c0,10.092-8.19,18.282-18.282,18.282H56.486l66.931-238.746h41.507
	C175.016,229.69,183.205,237.879,183.205,247.983z"/>
<polygon style="fill:#F98791;" points="183.205,275.935 183.205,422.19 69.448,422.19 110.454,275.935 "/>
<g>
	<circle style="fill:#4D4D4D;" cx="443.661" cy="259.034" r="8.543"/>
	<circle style="fill:#4D4D4D;" cx="91.603" cy="445.656" r="8.543"/>
	<polygon style="fill:#4D4D4D;" points="334.976,203.477 291.083,181.011 291.083,196.642 209.049,196.642 209.049,210.311 
		291.083,210.311 291.083,225.941 	"/>
	<polygon style="fill:#4D4D4D;" points="209.049,252.075 252.943,274.541 252.943,258.91 334.976,258.91 334.976,245.241 
		252.943,245.241 252.943,229.611 	"/>
</g>
<g>
</g>
<g>
</g>
<g>
</g>
<g>
</g>
<g>
</g>
<g>
</g>
<g>
</g>
<g>
</g>
<g>
</g>
<g>
</g>
<g>
</g>
<g>
</g>
<g>
</g>
<g>
</g>
<g>
</g>
</svg>
