<?xml version="1.0" encoding="utf-8"?>
<!-- Generator: Adobe Illustrator 16.0.0, SVG Export Plug-In . SVG Version: 6.00 Build 0)  -->
<!DOCTYPE svg PUBLIC "-//W3C//DTD SVG 1.1 Basic//EN" "http://www.w3.org/Graphics/SVG/1.1/DTD/svg11-basic.dtd">
<svg version="1.1" baseProfile="basic" id="Layer_1"
	 xmlns="http://www.w3.org/2000/svg" xmlns:xlink="http://www.w3.org/1999/xlink" x="0px" y="0px" width="673.467px"
	 height="456.706px" viewBox="0 0 673.467 456.706" xml:space="preserve">
<g>
	<path fill="none" stroke="#FFFFFF" stroke-width="2" stroke-miterlimit="10" d="M234.7,127.104h-23.339
		c0.153-0.98,0.256-1.977,0.256-3c0-10.679-8.657-19.333-19.334-19.333s-19.334,8.654-19.334,19.333c0,1.023,0.103,2.02,0.256,3
		h-7.346c0.099-0.53,0.164-1.069,0.164-1.624c0-5.777-5.556-10.46-12.408-10.46s-12.408,4.683-12.408,10.46
		c0,0.555,0.065,1.094,0.164,1.624H124.2"/>
	<circle fill="none" stroke="#FFFFFF" stroke-width="2" stroke-miterlimit="10" cx="120.45" cy="113.188" r="2.75"/>
	<circle fill="none" stroke="#FFFFFF" stroke-width="2" stroke-miterlimit="10" cx="245.204" cy="111.941" r="4"/>
	<line fill="none" stroke="#FFFFFF" stroke-width="2" stroke-miterlimit="10" x1="229.7" y1="92.52" x2="229.7" y2="103.77"/>
	<line fill="none" stroke="#FFFFFF" stroke-width="2" stroke-miterlimit="10" x1="223.95" y1="98.27" x2="235.2" y2="98.27"/>
</g>
<g>
	<path fill="none" stroke="#FFFFFF" stroke-width="2" stroke-miterlimit="10" d="M565.354,109.812h-23.338
		c0.152-0.98,0.256-1.977,0.256-3c0-10.679-8.658-19.333-19.334-19.333c-10.678,0-19.334,8.654-19.334,19.333
		c0,1.023,0.102,2.02,0.256,3h-7.346c0.098-0.53,0.164-1.069,0.164-1.624c0-5.777-5.558-10.46-12.408-10.46
		c-6.854,0-12.408,4.683-12.408,10.46c0,0.555,0.064,1.094,0.164,1.624h-17.172"/>
	<circle fill="none" stroke="#FFFFFF" stroke-width="2" stroke-miterlimit="10" cx="451.104" cy="95.896" r="2.75"/>
	<circle fill="none" stroke="#FFFFFF" stroke-width="2" stroke-miterlimit="10" cx="575.857" cy="94.649" r="4"/>
	<line fill="none" stroke="#FFFFFF" stroke-width="2" stroke-miterlimit="10" x1="560.354" y1="75.228" x2="560.354" y2="86.478"/>
	<line fill="none" stroke="#FFFFFF" stroke-width="2" stroke-miterlimit="10" x1="554.604" y1="80.978" x2="565.854" y2="80.978"/>
</g>
<path fill="none" stroke="#FFFFFF" stroke-width="2" stroke-miterlimit="10" d="M345.518,7.718c0,0-106,89-51,257c0,0,38-26,104,0
	C398.518,264.718,451.518,115.718,345.518,7.718z"/>
<path fill="none" stroke="#FFFFFF" stroke-width="2" stroke-miterlimit="10" d="M279.601,149.638l-47.829,35.081v49.999
	l50.017-23.039C281.788,211.679,276.643,181.398,279.601,149.638z"/>
<path fill="none" stroke="#FFFFFF" stroke-width="2" stroke-miterlimit="10" d="M410.474,149.638l45.711,32.414v49.999
	L409.831,210.7C409.831,210.7,413.643,168.898,410.474,149.638z"/>
<path fill="none" stroke="#FFFFFF" stroke-width="2" stroke-miterlimit="10" d="M298.493,75.228c0,0,42.176-26.827,92.934,0"/>
<path fill="none" stroke="#FFFFFF" stroke-width="2" stroke-miterlimit="10" d="M284.229,225.681c0,0,53.288-26.293,123.539,0"/>
<path fill="none" stroke="#FFFFFF" stroke-width="2" stroke-miterlimit="10" d="M286.159,234.718c0,0,49.589-26.293,119.84,0"/>
<path fill="none" stroke="#FFFFFF" stroke-width="2" stroke-miterlimit="10" d="M317.806,255.777l-8.788,21.941
	c0,0-2.423,5.5,8.788,0c0,0,30.712-13.111,57.712,2.444c0,0,9,6.056,5.5-2.944l-5.532-19.869
	C375.485,257.349,345.229,248.398,317.806,255.777z"/>
<g>
	
		<line fill="none" stroke="#FFFFFF" stroke-width="2" stroke-miterlimit="10" x1="289.518" y1="296.218" x2="289.518" y2="353.218"/>
	
		<line fill="none" stroke="#FFFFFF" stroke-width="2" stroke-miterlimit="10" x1="301.018" y1="306.218" x2="301.018" y2="363.218"/>
	
		<line fill="none" stroke="#FFFFFF" stroke-width="2" stroke-miterlimit="10" x1="311.018" y1="296.218" x2="311.018" y2="353.218"/>
</g>
<g>
	
		<line fill="none" stroke="#FFFFFF" stroke-width="2" stroke-miterlimit="10" x1="332.018" y1="324.718" x2="332.018" y2="381.718"/>
	
		<line fill="none" stroke="#FFFFFF" stroke-width="2" stroke-miterlimit="10" x1="343.518" y1="334.718" x2="343.518" y2="391.718"/>
	
		<line fill="none" stroke="#FFFFFF" stroke-width="2" stroke-miterlimit="10" x1="353.518" y1="324.718" x2="353.518" y2="381.718"/>
</g>
<g>
	
		<line fill="none" stroke="#FFFFFF" stroke-width="2" stroke-miterlimit="10" x1="375.518" y1="296.218" x2="375.518" y2="353.218"/>
	
		<line fill="none" stroke="#FFFFFF" stroke-width="2" stroke-miterlimit="10" x1="387.018" y1="306.218" x2="387.018" y2="363.218"/>
	
		<line fill="none" stroke="#FFFFFF" stroke-width="2" stroke-miterlimit="10" x1="397.018" y1="296.218" x2="397.018" y2="353.218"/>
</g>
<line fill="none" stroke="#FFFFFF" stroke-width="2" stroke-miterlimit="10" x1="565.399" y1="398.352" x2="565.399" y2="422.265"/>
<line fill="#ECF5FC" stroke="#FFFFFF" stroke-width="2" stroke-miterlimit="10" x1="8.518" y1="456.706" x2="666.518" y2="456.706"/>
<path fill="none" stroke="#FFFFFF" stroke-width="2" stroke-miterlimit="10" d="M98.851,456.706c0,0,19.371-26.643,49.352-13.321
	c0,0,13.559-46.666,67.77-35.333c0,0,8.879-31.909,46.213-31.288c0,0,23.666-0.045,38.833,25.288c0,0,30.5-14.654,52.5,20
	c0,0,9.999,22.002-4,34.654H98.851"/>
<path fill="none" stroke="#FFFFFF" stroke-width="2" stroke-miterlimit="10" d="M359.167,410.306
	c-0.146-4.055,0.538-8.085,2.35-11.954c12-25.632,31.334-15.72,31.334-15.72s20-27.74,51.333-17.826s34.854,39.416,34.854,39.416
	s29.146-16.239,53.812,5.463s20,33.035,20,33.035s31.334-17.362,46,13.985H387.018"/>
<path fill="none" stroke="#FFFFFF" stroke-width="2" stroke-miterlimit="10" d="M353.516,418.446
	c4.779-4.112,10.509-7.328,17.335-8.761c30-6.298,44.667,9.984,52,23.51c0,0,19.334-7.126,33.334,8.192c0,0,12.531-23.318,33.599-4
	c0,0,8.107,11.304,2.587,19.318H332.018"/>
<path fill="none" stroke="#FFFFFF" stroke-width="2" stroke-linecap="round" stroke-linejoin="round" stroke-miterlimit="10" d="
	M258.61,408.731"/>
<circle fill="none" stroke="#FFFFFF" stroke-width="2" stroke-miterlimit="10" cx="343.518" cy="110.438" r="16"/>
</svg>
