<?xml version="1.0" encoding="utf-8"?>
<!-- Generator: Adobe Illustrator 16.0.0, SVG Export Plug-In . SVG Version: 6.00 Build 0)  -->
<!DOCTYPE svg PUBLIC "-//W3C//DTD SVG 1.1 Basic//EN" "http://www.w3.org/Graphics/SVG/1.1/DTD/svg11-basic.dtd">
<svg version="1.1" baseProfile="basic" id="Layer_1"
	 xmlns="http://www.w3.org/2000/svg" xmlns:xlink="http://www.w3.org/1999/xlink" x="0px" y="0px" width="631.25px" height="300px"
	 viewBox="0 0 631.25 300" xml:space="preserve">
<g>
	
		<image overflow="visible" opacity="0.5" width="769" height="655" xlink:href="3B1F723E6D0C23EF.png"  transform="matrix(0.24 0 0 0.24 346.6172 -1.6953)">
	</image>
	<g>
		<polygon fill="#FFFFFF" points="501.018,58.981 376.617,28.305 399.558,63.43 		"/>
		<polygon fill="#ACEAFD" points="399.558,63.43 377.479,103.086 501.018,58.981 		"/>
		<polygon fill="#9AB7BE" points="377.479,103.086 406.196,81.979 501.018,58.981 		"/>
		<polygon fill="#FFFFFF" points="501.018,58.981 416.584,125.384 406.196,81.979 		"/>
	</g>
</g>
<g>
	
		<image overflow="visible" opacity="0.5" width="654" height="638" xlink:href="3B1F723E6D0C23ED.png"  transform="matrix(0.24 0 0 0.24 438.8818 89.2095)">
	</image>
	<g>
		<polygon fill="#FFFFFF" points="565.83,119.209 468.882,163.946 501.434,174.63 		"/>
		<polygon fill="#ACEAFD" points="501.434,174.63 508.342,212.185 565.83,119.209 		"/>
		<polygon fill="#81B0BE" points="508.342,212.185 516.132,182.154 565.83,119.209 		"/>
		<polygon fill="#FFFFFF" points="565.83,119.209 545.306,207.199 516.132,182.154 		"/>
	</g>
</g>
<g>
	
		<image overflow="visible" opacity="0.5" width="656" height="578" xlink:href="3B1F723E6D0C23F3.png"  transform="matrix(0.24 0 0 0.24 189.9639 -8.8916)">
	</image>
	<g>
		<polygon fill="#FFFFFF" points="317.396,84.742 245.389,21.108 245.311,50.369 		"/>
		<polygon fill="#ACEAFD" points="245.311,50.369 219.964,71.105 317.396,84.742 		"/>
		<polygon fill="#81B0BE" points="219.964,71.105 244.384,63.66 317.396,84.742 		"/>
		<polygon fill="#FFFFFF" points="317.396,84.742 237.475,99.745 244.384,63.66 		"/>
	</g>
</g>
<g>
	
		<image overflow="visible" opacity="0.5" width="932" height="733" xlink:href="3B1F723E6D0C23F5.png"  transform="matrix(0.24 0 0 0.24 17.416 30.8203)">
	</image>
	<g>
		<path fill="#FFFFFF" d="M209.424,67.88c-0.137,0-0.275-0.021-0.413-0.062c-1.658-0.498-3.375-0.958-5.105-1.366
			c-0.77-0.182-1.246-0.953-1.064-1.723c0.182-0.77,0.95-1.25,1.723-1.064c1.785,0.421,3.559,0.896,5.27,1.411
			c0.758,0.227,1.188,1.026,0.96,1.783C210.609,67.479,210.04,67.88,209.424,67.88z"/>
		<path fill="#FFFFFF" d="M144.885,176.509c-2.068,0-4.159-0.144-6.216-0.425c-0.784-0.108-1.332-0.831-1.224-1.614
			c0.108-0.783,0.826-1.333,1.614-1.224c3.509,0.48,7.107,0.524,10.581,0.13c0.783-0.091,1.495,0.476,1.584,1.262
			c0.089,0.786-0.476,1.495-1.262,1.585C148.291,176.412,146.583,176.509,144.885,176.509z M160.413,173.597
			c-0.57,0-1.109-0.344-1.332-0.906c-0.292-0.735,0.068-1.567,0.804-1.859c3.308-1.311,6.385-3.062,9.146-5.205
			c0.625-0.485,1.525-0.372,2.009,0.253c0.486,0.624,0.372,1.524-0.252,2.01c-2.975,2.31-6.288,4.196-9.848,5.605
			C160.767,173.562,160.588,173.597,160.413,173.597z M128.297,173.274c-0.18,0-0.363-0.034-0.54-0.106
			c-1.375-0.561-2.731-1.196-4.032-1.889c-2.008-1.07-3.954-2.334-5.781-3.756c-0.625-0.486-0.737-1.386-0.251-2.011
			c0.486-0.624,1.386-0.736,2.01-0.25c1.699,1.321,3.505,2.495,5.369,3.489c1.214,0.646,2.481,1.24,3.766,1.763
			c0.733,0.299,1.085,1.134,0.786,1.867C129.397,172.938,128.862,173.274,128.297,173.274z M177.347,160.199
			c-0.272,0-0.548-0.077-0.792-0.24c-0.659-0.438-0.836-1.327-0.398-1.986c1.907-2.862,3.399-6.064,4.434-9.519
			c0.227-0.758,1.026-1.188,1.783-0.961c0.758,0.227,1.188,1.025,0.961,1.783c-1.116,3.726-2.729,7.186-4.794,10.286
			C178.264,159.976,177.81,160.199,177.347,160.199z M111.142,160.044c-0.43,0-0.855-0.193-1.137-0.561
			c-2.229-2.903-4.188-6.146-5.819-9.636c-0.335-0.716-0.025-1.569,0.691-1.904c0.716-0.335,1.568-0.026,1.904,0.691
			c1.543,3.302,3.393,6.365,5.496,9.105c0.482,0.627,0.363,1.526-0.264,2.008C111.753,159.948,111.446,160.044,111.142,160.044z
			 M52.95,159.007c-0.178,0-0.358-0.034-0.533-0.104c-0.734-0.295-1.09-1.128-0.796-1.863c1.307-3.256,2.889-6.642,4.701-10.066
			c0.37-0.699,1.235-0.967,1.936-0.596c0.7,0.37,0.966,1.236,0.596,1.936c-1.766,3.336-3.305,6.631-4.575,9.794
			C54.055,158.666,53.518,159.007,52.95,159.007z M101.824,140.351c-0.641,0-1.224-0.432-1.388-1.081
			c-0.908-3.594-1.504-7.316-1.773-11.064c-0.057-0.79,0.537-1.475,1.326-1.531c0.794-0.051,1.475,0.538,1.531,1.326
			c0.257,3.582,0.827,7.138,1.693,10.568c0.193,0.767-0.271,1.546-1.038,1.74C102.059,140.337,101.94,140.351,101.824,140.351z
			 M63.12,139.612c-0.264,0-0.53-0.073-0.769-0.225c-0.667-0.426-0.863-1.312-0.437-1.978c1.919-3.005,4.028-6.07,6.269-9.11
			c0.469-0.638,1.366-0.774,2.002-0.303c0.637,0.469,0.772,1.366,0.303,2.002c-2.203,2.989-4.276,6.001-6.161,8.953
			C64.055,139.378,63.592,139.612,63.12,139.612z M183.693,139.5c-0.016,0-0.031,0-0.046-0.001
			c-0.791-0.025-1.411-0.687-1.386-1.477c0.016-0.467,0.022-0.932,0.022-1.399c0-3.058-0.32-6.14-0.953-9.161
			c-0.163-0.774,0.333-1.534,1.108-1.696c0.775-0.157,1.534,0.335,1.695,1.108c0.673,3.213,1.015,6.493,1.015,9.748
			c0,0.498-0.008,0.994-0.024,1.49C185.1,138.888,184.463,139.5,183.693,139.5z M76.096,121.949c-0.322,0-0.646-0.107-0.913-0.329
			c-0.609-0.505-0.693-1.408-0.189-2.017c2.199-2.653,4.551-5.355,6.991-8.03l0.275-0.297c0.541-0.578,1.447-0.607,2.025-0.065
			c0.577,0.54,0.606,1.447,0.065,2.023l-0.249,0.27c-2.41,2.641-4.732,5.308-6.902,7.926
			C76.917,121.772,76.507,121.949,76.096,121.949z M100.258,118.582c-0.049,0-0.099-0.002-0.148-0.008
			c-0.787-0.08-1.359-0.784-1.278-1.571c0.385-3.755,1.104-7.458,2.14-11.005c0.222-0.76,1.016-1.195,1.776-0.974
			c0.759,0.222,1.195,1.017,0.974,1.776c-0.986,3.381-1.673,6.912-2.04,10.495C101.605,118.032,100.982,118.582,100.258,118.582z
			 M179.226,118.238c-0.534,0-1.045-0.299-1.292-0.812c-1.563-3.249-3.506-6.22-5.774-8.832c-0.519-0.597-0.455-1.502,0.143-2.021
			c0.597-0.52,1.501-0.454,2.021,0.142c2.435,2.805,4.519,5.99,6.192,9.468c0.343,0.712,0.043,1.569-0.669,1.912
			C179.645,118.192,179.434,118.238,179.226,118.238z M91.825,106.822c-0.474,0-0.938-0.235-1.21-0.664
			c-0.424-0.667-0.227-1.552,0.441-1.977c2.978-1.892,6.307-3.644,9.895-5.206c0.725-0.316,1.569,0.017,1.885,0.741
			c0.316,0.726-0.016,1.569-0.741,1.886c-3.452,1.503-6.649,3.184-9.503,4.997C92.353,106.75,92.087,106.822,91.825,106.822z
			 M164.955,101.965c-0.263,0-0.529-0.072-0.768-0.224c-2.884-1.835-6.107-3.35-9.58-4.501c-0.75-0.249-1.157-1.06-0.908-1.811
			c0.25-0.75,1.062-1.157,1.811-0.908c3.695,1.227,7.132,2.843,10.215,4.804c0.667,0.425,0.864,1.31,0.44,1.977
			C165.891,101.731,165.428,101.965,164.955,101.965z M111.832,97.996c-0.62,0-1.191-0.405-1.374-1.03
			c-0.222-0.759,0.213-1.555,0.972-1.777c3.571-1.046,7.224-1.88,10.856-2.481c0.779-0.125,1.518,0.399,1.646,1.18
			c0.129,0.78-0.399,1.518-1.18,1.647c-3.519,0.581-7.058,1.39-10.518,2.403C112.101,97.978,111.965,97.996,111.832,97.996z
			 M106.412,97.665c-0.223,0-0.449-0.051-0.661-0.162c-0.702-0.365-0.974-1.23-0.609-1.932c1.751-3.361,3.84-6.516,6.209-9.377
			c0.504-0.609,1.407-0.695,2.017-0.19c0.609,0.504,0.694,1.407,0.19,2.016c-2.241,2.707-4.217,5.692-5.875,8.874
			C107.428,97.385,106.929,97.665,106.412,97.665z M144.373,94.939c-0.059,0-0.119-0.003-0.18-0.011
			c-3.42-0.427-7.064-0.58-10.72-0.464c-0.787,0.033-1.452-0.596-1.477-1.386c-0.025-0.791,0.596-1.452,1.386-1.477
			c3.805-0.122,7.599,0.04,11.167,0.486c0.784,0.098,1.342,0.813,1.243,1.598C145.702,94.409,145.085,94.939,144.373,94.939z
			 M120.307,80.912c-0.423,0-0.842-0.187-1.125-0.545c-0.49-0.621-0.383-1.522,0.237-2.012c2.823-2.228,5.973-4.293,9.36-6.14
			c0.694-0.378,1.564-0.121,1.942,0.572c0.379,0.694,0.123,1.564-0.572,1.942c-3.247,1.77-6.259,3.746-8.957,5.874
			C120.931,80.811,120.618,80.912,120.307,80.912z M139.434,70.356c-0.579,0-1.123-0.353-1.339-0.925
			c-0.281-0.74,0.092-1.567,0.832-1.847c3.364-1.274,6.936-2.393,10.617-3.324c0.767-0.193,1.546,0.271,1.74,1.038
			c0.194,0.767-0.271,1.545-1.037,1.739c-3.576,0.905-7.043,1.99-10.305,3.226C139.774,70.326,139.602,70.356,139.434,70.356z
			 M160.647,64.933c-0.698,0-1.309-0.51-1.415-1.222c-0.117-0.782,0.423-1.511,1.205-1.627c3.615-0.54,7.329-0.92,11.039-1.13
			c0.787-0.039,1.466,0.56,1.511,1.349c0.044,0.79-0.559,1.467-1.349,1.511c-3.623,0.205-7.25,0.576-10.777,1.103
			C160.789,64.928,160.717,64.933,160.647,64.933z M193.448,64.552c-0.06,0-0.121-0.003-0.182-0.011
			c-3.518-0.447-7.15-0.735-10.795-0.855c-0.791-0.026-1.41-0.688-1.384-1.479c0.026-0.79,0.675-1.417,1.479-1.384
			c3.734,0.124,7.456,0.418,11.062,0.876c0.785,0.1,1.34,0.817,1.24,1.602C194.775,64.023,194.159,64.552,193.448,64.552z"/>
		<path fill="#FFFFFF" d="M48.849,174.81c-0.016,0-0.032,0-0.048-0.001c-0.791-0.026-1.41-0.688-1.384-1.479
			c0.035-1.056,0.202-2.88,0.797-5.569c0.17-0.773,0.935-1.261,1.708-1.09c0.771,0.171,1.26,0.936,1.089,1.708
			c-0.428,1.932-0.687,3.725-0.731,5.047C50.254,174.199,49.618,174.81,48.849,174.81z"/>
	</g>
</g>
<g>
	
		<image overflow="visible" opacity="0.5" width="1066" height="650" xlink:href="3B1F723E6D0C23F7.png"  transform="matrix(0.24 0 0 0.24 274.5752 143.6318)">
	</image>
	<g>
		<path fill="#FFFFFF" d="M309.265,237.206c-0.414,0-0.824-0.178-1.106-0.522c-1.188-1.443-2.305-2.909-3.322-4.357
			c-0.455-0.646-0.299-1.54,0.348-1.995c0.646-0.454,1.54-0.299,1.995,0.349c0.976,1.39,2.05,2.797,3.191,4.185
			c0.502,0.611,0.415,1.513-0.196,2.016C309.907,237.1,309.585,237.206,309.265,237.206z"/>
		<path fill="#FFFFFF" d="M375.855,269.46c-0.742,0-1.37-0.573-1.426-1.325c-0.061-0.789,0.531-1.477,1.32-1.535
			c1.357-0.102,2.717-0.26,4.04-0.471c2.149-0.343,4.317-0.812,6.442-1.396c0.766-0.212,1.552,0.24,1.761,1.003
			s-0.24,1.551-1.002,1.76c-2.228,0.61-4.498,1.103-6.751,1.461c-1.401,0.224-2.84,0.392-4.276,0.498
			C375.928,269.459,375.892,269.46,375.855,269.46z M364.942,269.178c-0.058,0-0.115-0.003-0.173-0.01
			c-3.57-0.431-7.247-1.186-10.929-2.245c-0.76-0.219-1.199-1.013-0.98-1.772c0.219-0.761,1.016-1.201,1.772-0.98
			c3.535,1.018,7.061,1.742,10.479,2.154c0.785,0.094,1.346,0.808,1.251,1.593C366.274,268.645,365.656,269.178,364.942,269.178z
			 M396.859,263.762c-0.538,0-1.055-0.304-1.298-0.823c-0.336-0.716-0.027-1.569,0.688-1.905c1.559-0.73,3.096-1.528,4.601-2.389
			c-1.362-0.382-2.708-0.795-4.032-1.235c-0.751-0.249-1.156-1.061-0.907-1.81c0.249-0.751,1.062-1.16,1.811-0.907
			c2.122,0.705,4.299,1.335,6.509,1.885c0.434-0.284,0.864-0.573,1.291-0.867c0.652-0.45,1.544-0.286,1.992,0.366
			c0.27,0.392,0.318,0.87,0.172,1.288c0.147,0.03,0.294,0.06,0.441,0.089c0.775,0.157,1.277,0.913,1.12,1.688
			c-0.156,0.775-0.907,1.274-1.687,1.121c-0.941-0.189-1.88-0.395-2.813-0.613c-2.35,1.477-4.788,2.81-7.28,3.979
			C397.271,263.719,397.063,263.762,396.859,263.762z M343.963,263.24c-0.192,0-0.389-0.039-0.575-0.122
			c-3.321-1.461-6.645-3.166-9.879-5.068c-0.681-0.4-0.909-1.278-0.508-1.96c0.4-0.682,1.279-0.909,1.961-0.509
			c3.137,1.846,6.359,3.499,9.578,4.914c0.725,0.319,1.053,1.164,0.734,1.888C345.038,262.92,344.514,263.24,343.963,263.24z
			 M423.558,261.959c-1.63,0-3.287-0.061-4.978-0.181c-0.79-0.056-1.384-0.74-1.328-1.529c0.057-0.788,0.735-1.371,1.529-1.328
			c1.625,0.114,3.214,0.173,4.725,0.174c2.023-0.002,4.023-0.079,5.996-0.229c0.795-0.064,1.477,0.529,1.537,1.318
			c0.06,0.789-0.53,1.477-1.319,1.537C427.677,261.878,425.604,261.957,423.558,261.959z M440.422,260.156
			c-0.661,0-1.255-0.46-1.398-1.133c-0.167-0.773,0.326-1.534,1.1-1.7c3.451-0.739,6.93-1.726,10.34-2.928
			c0.745-0.265,1.564,0.128,1.826,0.874c0.265,0.745-0.127,1.563-0.874,1.826c-3.524,1.245-7.122,2.263-10.691,3.028
			C440.622,260.146,440.521,260.156,440.422,260.156z M387.148,253.345c-0.214,0-0.43-0.048-0.634-0.148
			c-3.471-1.717-6.691-3.656-9.572-5.767c-0.638-0.467-0.776-1.363-0.31-2.001c0.468-0.639,1.363-0.776,2.002-0.31
			c2.748,2.012,5.826,3.866,9.149,5.51c0.71,0.351,0.999,1.21,0.649,1.919C388.184,253.053,387.676,253.345,387.148,253.345z
			 M461.012,252.927c-0.528,0-1.037-0.293-1.286-0.8c-0.35-0.709-0.058-1.567,0.652-1.917c3.16-1.555,6.321-3.332,9.398-5.281
			c0.669-0.422,1.553-0.225,1.977,0.444c0.423,0.668,0.225,1.553-0.443,1.976c-3.163,2.004-6.416,3.831-9.667,5.432
			C461.44,252.881,461.224,252.927,461.012,252.927z M325.132,252.192c-0.298,0-0.599-0.094-0.856-0.286
			c-2.989-2.234-5.851-4.632-8.505-7.125c-0.577-0.542-0.605-1.448-0.063-2.024c0.542-0.576,1.448-0.604,2.024-0.063
			c2.577,2.42,5.355,4.749,8.258,6.919c0.634,0.474,0.764,1.371,0.29,2.005C325.999,251.993,325.568,252.192,325.132,252.192z
			 M414.797,251.409c-0.375,0-0.75-0.146-1.031-0.438c-0.549-0.569-0.532-1.477,0.038-2.025c2.595-2.501,4.962-5.204,7.035-8.035
			c0.468-0.639,1.363-0.776,2.001-0.309c0.639,0.467,0.777,1.363,0.31,2.001c-2.17,2.964-4.646,5.791-7.358,8.405
			C415.514,251.277,415.155,251.409,414.797,251.409z M479.483,241.271c-0.426,0-0.849-0.19-1.131-0.553
			c-0.485-0.623-0.374-1.523,0.25-2.01c2.806-2.186,5.569-4.55,8.216-7.025c0.576-0.541,1.482-0.512,2.023,0.066
			c0.541,0.577,0.511,1.483-0.066,2.024c-2.708,2.535-5.539,4.955-8.412,7.194C480.102,241.172,479.791,241.271,479.483,241.271z
			 M369.725,240.357c-0.4,0-0.799-0.167-1.082-0.493c-2.537-2.92-4.621-6.093-6.195-9.432c-0.338-0.716-0.031-1.568,0.685-1.906
			c0.715-0.337,1.569-0.031,1.905,0.686c1.463,3.1,3.403,6.052,5.768,8.774c0.52,0.597,0.456,1.501-0.142,2.02
			C370.393,240.242,370.058,240.357,369.725,240.357z M427.598,233.815c-0.205,0-0.413-0.044-0.611-0.138
			c-0.715-0.337-1.021-1.19-0.684-1.906c1.557-3.299,2.716-6.669,3.445-10.014c0.168-0.773,0.935-1.263,1.704-1.094
			c0.772,0.168,1.263,0.931,1.095,1.704c-0.775,3.556-2.005,7.131-3.654,10.626C428.649,233.512,428.135,233.815,427.598,233.815z
			 M360.565,220.84c-0.69,0-1.299-0.5-1.412-1.204c-0.379-2.35-0.57-4.726-0.57-7.062c0-1.408,0.07-2.825,0.207-4.208
			c0.079-0.787,0.778-1.365,1.567-1.284c0.787,0.078,1.361,0.779,1.283,1.566c-0.128,1.29-0.193,2.61-0.193,3.926
			c0,2.185,0.181,4.407,0.534,6.605c0.126,0.781-0.405,1.517-1.186,1.643C360.718,220.834,360.642,220.84,360.565,220.84z
			 M432.046,212.632c-0.753,0-1.385-0.588-1.429-1.351c-0.203-3.54-0.936-6.98-2.176-10.226c-0.283-0.738,0.088-1.566,0.826-1.849
			c0.734-0.281,1.566,0.086,1.85,0.826c1.346,3.521,2.141,7.249,2.359,11.085c0.046,0.789-0.557,1.466-1.348,1.512
			C432.101,212.631,432.073,212.632,432.046,212.632z M362.771,199.344c-0.175,0-0.354-0.033-0.527-0.102
			c-0.735-0.292-1.095-1.124-0.803-1.86c1.413-3.559,3.323-6.853,5.677-9.789c0.496-0.618,1.397-0.715,2.014-0.222
			c0.617,0.495,0.717,1.396,0.222,2.014c-2.176,2.714-3.941,5.76-5.25,9.055C363.88,199.001,363.341,199.344,362.771,199.344z
			 M424.441,192.469c-0.436,0-0.863-0.197-1.146-0.571c-2.128-2.823-4.598-5.378-7.342-7.591c-0.615-0.497-0.712-1.398-0.215-2.015
			c0.497-0.615,1.398-0.712,2.014-0.215c2.927,2.361,5.562,5.085,7.831,8.098c0.476,0.631,0.35,1.529-0.283,2.005
			C425.043,192.375,424.741,192.469,424.441,192.469z M376.271,182.57c-0.463,0-0.918-0.225-1.194-0.641
			c-0.438-0.658-0.258-1.548,0.4-1.985c3.127-2.076,6.582-3.678,10.27-4.763c0.761-0.224,1.556,0.212,1.778,0.971
			c0.224,0.759-0.211,1.555-0.971,1.778c-3.411,1.003-6.605,2.483-9.492,4.4C376.818,182.492,376.544,182.57,376.271,182.57z
			 M407.527,178.973c-0.188,0-0.376-0.037-0.559-0.114c-3.364-1.427-6.761-2.222-10.093-2.363c-0.79-0.033-1.403-0.702-1.37-1.492
			c0.033-0.791,0.678-1.396,1.492-1.37c3.676,0.157,7.406,1.027,11.088,2.588c0.729,0.309,1.068,1.15,0.761,1.878
			C408.615,178.645,408.085,178.973,407.527,178.973z"/>
		<path fill="#FFFFFF" d="M495.479,226.281c-0.338,0-0.676-0.118-0.949-0.36c-0.592-0.525-0.646-1.431-0.121-2.021
			c1.224-1.379,2.338-2.703,3.408-4.049c0.491-0.62,1.393-0.724,2.012-0.23c0.62,0.492,0.723,1.394,0.23,2.013
			c-1.103,1.387-2.25,2.75-3.508,4.167C496.268,226.119,495.874,226.281,495.479,226.281z"/>
	</g>
</g>
<g>
	
		<image overflow="visible" opacity="0.5" width="1426" height="899" xlink:href="3B1F723E6D0C23F4.png"  transform="matrix(0.24 0 0 0.24 63.9639 68.4487)">
	</image>
	<g>
		<path fill="#FFFFFF" d="M169.176,254.062c-0.006,0-0.013,0-0.019,0c-3.516-0.046-7.153-0.198-10.812-0.452
			c-0.789-0.055-1.384-0.739-1.33-1.528c0.055-0.789,0.746-1.378,1.528-1.329c3.604,0.25,7.188,0.4,10.65,0.445
			c0.791,0.01,1.424,0.66,1.414,1.45C170.598,253.433,169.958,254.062,169.176,254.062z M179.908,253.866
			c-0.758,0-1.39-0.594-1.429-1.359c-0.04-0.79,0.568-1.463,1.358-1.503c3.592-0.183,7.157-0.489,10.594-0.912
			c0.793-0.091,1.5,0.462,1.596,1.247c0.097,0.785-0.461,1.5-1.247,1.596c-3.505,0.432-7.138,0.744-10.798,0.93
			C179.958,253.865,179.933,253.866,179.908,253.866z M147.754,252.594c-0.057,0-0.114-0.003-0.173-0.011
			c-3.488-0.419-7.086-0.935-10.695-1.533c-0.781-0.13-1.308-0.866-1.179-1.647c0.13-0.78,0.869-1.308,1.647-1.178
			c3.566,0.592,7.122,1.101,10.568,1.516c0.785,0.094,1.345,0.807,1.251,1.592C149.087,252.06,148.469,252.594,147.754,252.594z
			 M201.198,251.215c-0.666,0-1.262-0.467-1.401-1.144c-0.16-0.775,0.339-1.532,1.114-1.692c3.504-0.721,6.965-1.593,10.284-2.592
			c0.758-0.227,1.557,0.201,1.784,0.959c0.229,0.757-0.201,1.556-0.958,1.784c-3.401,1.023-6.945,1.916-10.533,2.655
			C201.391,251.205,201.294,251.215,201.198,251.215z M126.565,249.097c-0.096,0-0.194-0.01-0.292-0.029
			c-3.432-0.711-6.974-1.512-10.526-2.382c-0.768-0.188-1.238-0.963-1.051-1.731c0.188-0.768,0.964-1.238,1.732-1.05
			c3.52,0.86,7.027,1.654,10.426,2.356c0.774,0.161,1.272,0.919,1.112,1.693C127.826,248.632,127.23,249.097,126.565,249.097z
			 M221.725,245.003c-0.563,0-1.097-0.335-1.325-0.888c-0.301-0.731,0.048-1.568,0.78-1.87c3.278-1.349,6.497-2.874,9.564-4.531
			c0.696-0.376,1.565-0.116,1.941,0.579c0.376,0.696,0.117,1.565-0.579,1.941c-3.156,1.705-6.465,3.273-9.835,4.66
			C222.091,244.969,221.907,245.003,221.725,245.003z M105.698,244.003c-0.127,0-0.257-0.018-0.386-0.054
			c-3.386-0.945-6.865-1.974-10.341-3.054c-0.756-0.235-1.178-1.038-0.942-1.793c0.235-0.756,1.037-1.178,1.792-0.943
			c3.45,1.073,6.902,2.094,10.261,3.031c0.762,0.213,1.207,1.004,0.994,1.765C106.9,243.588,106.325,244.003,105.698,244.003z
			 M240.579,234.796c-0.455,0-0.901-0.216-1.18-0.618c-0.45-0.651-0.287-1.543,0.364-1.993c2.876-1.987,5.69-4.169,8.363-6.481
			c0.599-0.52,1.503-0.453,2.021,0.146c0.518,0.598,0.452,1.502-0.146,2.019c-2.751,2.383-5.647,4.628-8.609,6.675
			C241.143,234.713,240.859,234.796,240.579,234.796z M256.808,220.778c-0.353,0-0.706-0.129-0.982-0.39
			c-0.576-0.543-0.602-1.449-0.06-2.025c0.411-0.435,0.81-0.865,1.199-1.289c2.051-2.239,3.956-4.512,5.66-6.753
			c0.479-0.629,1.377-0.753,2.007-0.272c0.629,0.479,0.752,1.378,0.272,2.007c-1.756,2.31-3.717,4.649-5.828,6.955
			c-0.399,0.435-0.808,0.873-1.227,1.318C257.568,220.627,257.188,220.778,256.808,220.778z M269.689,203.698
			c-0.241,0-0.486-0.061-0.71-0.189c-0.687-0.394-0.924-1.269-0.531-1.954c1.667-2.906,3.153-5.913,4.681-9.461
			c0.312-0.727,1.155-1.062,1.882-0.749c0.726,0.312,1.062,1.155,0.749,1.882c-1.571,3.649-3.104,6.749-4.826,9.752
			C270.669,203.44,270.187,203.698,269.689,203.698z M278.417,184.132c-0.171,0-0.346-0.031-0.515-0.097
			c-0.738-0.284-1.106-1.114-0.821-1.852c1.271-3.295,2.537-6.537,4.064-9.998c0.319-0.724,1.164-1.051,1.889-0.732
			c0.724,0.319,1.052,1.165,0.732,1.889c-1.501,3.403-2.755,6.612-4.012,9.872C279.534,183.782,278.992,184.132,278.417,184.132z
			 M287.203,164.586c-0.234,0-0.472-0.058-0.692-0.18c-0.692-0.382-0.942-1.254-0.56-1.946c1.738-3.141,3.599-6.163,5.689-9.24
			c0.444-0.653,1.335-0.823,1.989-0.38c0.654,0.445,0.824,1.335,0.38,1.99c-2.041,3.004-3.857,5.953-5.552,9.017
			C288.196,164.319,287.707,164.586,287.203,164.586z M299.199,146.834c-0.313,0-0.628-0.102-0.893-0.313
			c-0.618-0.493-0.719-1.394-0.225-2.012c2.15-2.694,4.51-5.463,7.013-8.232c0.531-0.588,1.437-0.633,2.023-0.102
			c0.587,0.53,0.633,1.436,0.102,2.022c-2.463,2.726-4.785,5.451-6.899,8.099C300.036,146.649,299.62,146.834,299.199,146.834z
			 M313.646,130.976c-0.387,0-0.772-0.156-1.055-0.464c-0.535-0.583-0.497-1.488,0.086-2.023c2.596-2.384,5.439-4.701,8.452-6.888
			c0.641-0.465,1.537-0.322,2,0.318c0.465,0.64,0.323,1.536-0.317,2c-2.924,2.123-5.682,4.37-8.197,6.679
			C314.34,130.851,313.993,130.976,313.646,130.976z M330.969,118.328c-0.491,0-0.97-0.253-1.237-0.708
			c-0.4-0.683-0.171-1.56,0.511-1.96c3.029-1.776,6.257-3.489,9.593-5.091c0.712-0.34,1.569-0.042,1.911,0.671
			c0.343,0.713,0.042,1.569-0.67,1.912c-3.266,1.568-6.423,3.243-9.385,4.98C331.464,118.266,331.215,118.328,330.969,118.328z
			 M350.304,108.998c-0.571,0-1.109-0.343-1.332-0.906c-0.291-0.735,0.069-1.567,0.805-1.858c3.279-1.297,6.709-2.53,10.195-3.664
			c0.755-0.244,1.56,0.168,1.805,0.92c0.244,0.751-0.167,1.56-0.92,1.805c-3.429,1.115-6.802,2.327-10.027,3.602
			C350.657,108.965,350.479,108.998,350.304,108.998z M370.725,102.333c-0.634,0-1.215-0.424-1.384-1.066
			c-0.202-0.765,0.254-1.548,1.019-1.75c1.41-0.373,2.764-0.713,4.051-1.025c0.768-0.191,1.543,0.284,1.729,1.054
			c0.187,0.769-0.285,1.542-1.055,1.729c-1.269,0.308-2.604,0.645-3.994,1.012C370.969,102.318,370.846,102.333,370.725,102.333z"/>
	</g>
</g>
</svg>
