<?xml version="1.0" encoding="utf-8"?>
<!-- Generator: Adobe Illustrator 16.0.0, SVG Export Plug-In . SVG Version: 6.00 Build 0)  -->
<!DOCTYPE svg PUBLIC "-//W3C//DTD SVG 1.1 Basic//EN" "http://www.w3.org/Graphics/SVG/1.1/DTD/svg11-basic.dtd">
<svg version="1.1" baseProfile="basic" id="Layer_1"
	 xmlns="http://www.w3.org/2000/svg" xmlns:xlink="http://www.w3.org/1999/xlink" x="0px" y="0px" width="67.167px"
	 height="47.667px" viewBox="0 0 67.167 47.667" xml:space="preserve">
<g>
	<path fill="#FFFFFF" d="M36.035,40.634c-2.377,0-4.941-0.016-7.714-0.051c-8.256-0.104-14.745-2.844-19.286-8.143
		C-0.624,21.173,1.898,2.483,2.01,1.693c0.078-0.546,0.583-0.93,1.13-0.849c0.547,0.077,0.927,0.583,0.85,1.13
		c-0.026,0.185-2.502,18.598,6.568,29.172c4.15,4.838,10.135,7.341,17.788,7.438c31.203,0.396,35.761-1.646,36.065-1.805
		c0.419-0.285,0.998-0.211,1.331,0.188c0.353,0.425,0.295,1.056-0.13,1.409C65.127,38.779,61.496,40.634,36.035,40.634z"/>
</g>
<g>
	<path fill="#FFFFFF" d="M60.547,46.694c-0.16,0-0.323-0.038-0.475-0.12c-0.486-0.262-0.667-0.868-0.405-1.354l4.425-8.208
		c0.263-0.485,0.869-0.668,1.355-0.406c0.486,0.263,0.668,0.869,0.406,1.355l-4.426,8.208
		C61.247,46.503,60.902,46.694,60.547,46.694z"/>
</g>
<g>
	<path fill="#FFFFFF" d="M64.972,38.607c-0.206,0-0.413-0.062-0.592-0.194l-8.64-6.356c-0.444-0.328-0.539-0.954-0.213-1.398
		c0.328-0.444,0.953-0.541,1.398-0.213l8.64,6.356c0.444,0.327,0.54,0.954,0.213,1.398C65.582,38.466,65.279,38.607,64.972,38.607z"
		/>
</g>
</svg>
