<?xml version="1.0" encoding="utf-8"?>
<!-- Generator: Adobe Illustrator 16.0.0, SVG Export Plug-In . SVG Version: 6.00 Build 0)  -->
<!DOCTYPE svg PUBLIC "-//W3C//DTD SVG 1.1 Basic//EN" "http://www.w3.org/Graphics/SVG/1.1/DTD/svg11-basic.dtd">
<svg version="1.1" baseProfile="basic" id="Layer_1"
	 xmlns="http://www.w3.org/2000/svg" xmlns:xlink="http://www.w3.org/1999/xlink" x="0px" y="0px" width="2832.919px"
	 height="147px" viewBox="-652.385 0 2832.919 147" xml:space="preserve">
<g>
	<path fill="#FFFFFF" d="M2180.533,158.924l0.623-0.839c5.094-6.866,7.786-15.022,7.786-23.593
		c0-21.854-17.781-39.635-39.639-39.635c-14.513,0-27.854,7.922-34.813,20.674l-1.628,2.982l-1.461-3.068
		c-7.325-15.396-23.065-25.34-40.102-25.34c-15.646,0-29.843,7.998-37.973,21.391l-1.271,2.092l-1.554-1.891
		c-6.864-8.36-16.996-13.154-27.798-13.154c-5.994,0-11.929,1.505-17.158,4.352l-1.444,0.787l-0.86-1.401
		c-11.322-18.439-30.98-29.447-52.589-29.447c-14.5,0-28.59,5.134-39.674,14.458l-1.129,0.952l-1.12-0.966
		c-11.302-9.752-25.757-15.12-40.701-15.12c-18.617,0-36.119,8.229-48.015,22.579l-1.019,1.229l-1.309-0.906
		c-8.055-5.592-17.501-8.545-27.318-8.545c-6.361,0-12.539,1.258-18.24,3.6c-0.082,0-0.161-0.004-0.243-0.004
		c-11.129,0-21.521,4.047-29.521,11.199c-9.272-10.229-22.415-16.15-36.515-16.15c-10.441,0-20.134,3.263-28.115,8.818
		c-11.612-13.391-28.369-21.144-46.5-21.144c-14.5,0-28.588,5.134-39.672,14.458l-1.131,0.952l-1.119-0.966
		c-11.302-9.752-25.756-15.12-40.701-15.12c-18.619,0-36.119,8.229-48.017,22.579l-1.018,1.229l-1.308-0.906
		c-8.056-5.592-17.5-8.545-27.317-8.545c-16.117,0-31.07,8.03-40.002,21.486l-1.474,2.219l-1.435-2.244
		c-9.126-14.287-24.683-22.816-41.608-22.816c-21.44,0-39.721,13.75-46.51,32.89l-1.236-2.598
		c-7.327-15.396-23.067-25.341-40.102-25.341c-15.646,0-29.844,7.998-37.974,21.391l-1.271,2.092l-1.554-1.891
		c-6.864-8.36-16.996-13.154-27.8-13.154c-5.993,0-11.927,1.505-17.157,4.352l-1.443,0.787l-0.862-1.401
		c-11.321-18.438-30.979-29.447-52.588-29.447c-14.499,0-28.59,5.134-39.673,14.458l-1.13,0.952l-1.12-0.965
		c-11.302-9.752-25.756-15.121-40.701-15.121c-18.618,0-36.119,8.229-48.015,22.581l-1.02,1.227l-1.308-0.906
		c-8.054-5.592-17.5-8.545-27.317-8.545c-6.36,0-12.541,1.258-18.241,3.601c-0.082-0.001-0.162-0.005-0.244-0.005
		c-11.128,0-21.52,4.047-29.52,11.199c-9.271-10.229-22.415-16.15-36.515-16.15c-10.441,0-20.133,3.263-28.115,8.818
		c-11.612-13.391-28.369-21.144-46.5-21.144c-14.5,0-28.588,5.134-39.672,14.458l-1.131,0.952l-1.119-0.965
		c-11.302-9.752-25.756-15.121-40.701-15.121c-18.619,0-36.119,8.229-48.016,22.581l-1.02,1.227l-1.307-0.906
		c-8.056-5.592-17.5-8.545-27.318-8.545c-16.116,0-31.068,8.03-40.001,21.486l-1.473,2.221l-1.436-2.246
		c-9.125-14.287-24.682-22.816-41.608-22.816c-16.589,0-31.281,8.238-40.23,20.828c-8.333-9.881-20.771-15.877-33.995-15.877
		c-15.646,0-29.843,7.998-37.974,21.391l-1.27,2.092l-1.556-1.891c-6.863-8.359-16.996-13.154-27.798-13.154
		c-5.993,0-11.927,1.506-17.158,4.352l-1.444,0.787l-0.861-1.401c-11.322-18.438-30.982-29.447-52.588-29.447
		c-14.499,0-28.589,5.136-39.673,14.458l-1.13,0.952l-1.119-0.965c-11.302-9.752-25.756-15.121-40.701-15.121
		c-18.618,0-36.12,8.229-48.016,22.581l-1.018,1.227l-1.308-0.906c-8.053-5.59-17.5-8.545-27.317-8.545
		c-6.361,0-12.541,1.258-18.24,3.601c-0.082-0.001-0.163-0.005-0.245-0.005c-11.128,0-21.519,4.047-29.519,11.199
		c-9.272-10.229-22.415-16.15-36.515-16.15c-7.779,0-15.141,1.812-21.691,5.033c-2.96,0.168-5.857,0.617-8.66,1.342
		C72.224,79.652,56.434,72.838,39.437,72.838c-14.499,0-28.589,5.135-39.672,14.458l-1.131,0.952l-1.119-0.965
		c-11.301-9.752-25.756-15.121-40.701-15.121c-6.177,0-12.224,0.925-17.99,2.658c-8.844,2.293-17.141,6.525-24.21,12.476
		l-1.131,0.952l-1.119-0.965c-11.303-9.752-25.757-15.121-40.701-15.121c-18.572,0-36.029,8.191-47.924,22.477
		c-8.312-6.082-18.433-9.479-29.102-9.479c-7.775,0-15.134,1.814-21.683,5.033c-10.154,0.57-19.573,4.519-26.955,11.119
		c-9.273-10.23-22.415-16.152-36.515-16.152c-10.441,0-20.133,3.264-28.116,8.818c-11.613-13.39-28.369-21.143-46.5-21.143
		c-14.499,0-28.589,5.135-39.672,14.458l-1.131,0.952l-1.119-0.966c-11.302-9.753-25.757-15.12-40.701-15.12
		c-18.619,0-36.12,8.229-48.017,22.581l-1.017,1.227l-1.308-0.907c-8.055-5.59-17.5-8.543-27.318-8.543
		c-16.116,0-31.069,8.029-40,21.485l-1.473,2.22l-1.435-2.244c-9.126-14.287-24.682-22.817-41.609-22.817
		c-27.207,0-49.34,22.135-49.34,49.338c0,8.858,2.375,17.547,6.871,25.128l0.873,1.473l-1.461,0.894
		c-11.497,7.021-20.137,17.244-25.087,29.162H-273.5h477.637h301.451h103.115h689.594h89.494H2180.5
		c2.514-4.868,3.905-10.375,3.905-16.151c0-5.294-1.149-10.386-3.421-15.128L2180.533,158.924z"/>
</g>
</svg>
