<?xml version="1.0" encoding="utf-8"?>
<!-- Generator: Adobe Illustrator 16.0.0, SVG Export Plug-In . SVG Version: 6.00 Build 0)  -->
<!DOCTYPE svg PUBLIC "-//W3C//DTD SVG 1.1 Basic//EN" "http://www.w3.org/Graphics/SVG/1.1/DTD/svg11-basic.dtd">
<svg version="1.1" baseProfile="basic" id="Layer_1"
	 xmlns="http://www.w3.org/2000/svg" xmlns:xlink="http://www.w3.org/1999/xlink" x="0px" y="0px" width="220.667px" height="56px"
	 viewBox="0 0 220.667 56" xml:space="preserve">
<path fill="#FFFFFF" d="M48.395,29.151c0-0.073-0.013-0.144-0.014-0.216c0-0.093,0.014-0.183,0.014-0.275
	c0-10.97-8.895-19.864-19.866-19.864c-10.971,0-19.866,8.894-19.866,19.864c0,10.971,8.895,19.866,19.866,19.866
	c3.554,0,6.883-0.947,9.77-2.582h10.097c-1.991-1.175-3.338-3.346-4.175-5.133c2.104-2.709,3.516-5.978,3.985-9.547
	C48.317,30.57,48.395,29.868,48.395,29.151z M33.863,23.637c1.072,0,1.943,0.873,1.943,1.942c0,1.073-0.872,1.943-1.943,1.943
	c-1.074,0-1.945-0.871-1.945-1.943C31.917,24.51,32.789,23.637,33.863,23.637z M23.439,23.637c1.072,0,1.944,0.873,1.944,1.942
	c0,1.073-0.872,1.943-1.944,1.943c-1.074,0-1.945-0.871-1.945-1.943C21.495,24.51,22.365,23.637,23.439,23.637z M40.787,31.863
	c-3.009,2.624-7.17,4.25-11.768,4.25c-4.748,0-9.028-1.732-12.058-4.505v-1.42c3.03,2.361,7.31,3.834,12.058,3.834
	c4.598,0,8.759-1.381,11.768-3.615V31.863z"/>
<g>
	<path fill="#FFFFFF" d="M57.27,43.782V14.039c0-1.161,0.323-2.092,0.967-2.802c0.645-0.708,1.482-1.063,2.514-1.063
		c1.03,0,1.869,0.355,2.514,1.062c0.644,0.707,0.967,1.637,0.967,2.794v9.442c1.805-1.612,3.997-2.417,6.576-2.417
		c3.546,0,6.351,1.436,8.414,4.303c1.868,2.61,2.804,5.754,2.804,9.428c0,3.451-1.032,6.463-3.095,9.043
		c-2.193,2.741-4.964,4.108-8.317,4.108c-1.322,0-2.562-0.273-3.723-0.822c-1.162-0.549-2.048-1.337-2.66-2.369
		c-0.258,0.969-0.66,1.693-1.208,2.178c-0.549,0.483-1.306,0.725-2.272,0.725c-1.032,0-1.87-0.355-2.514-1.063
		C57.593,45.876,57.27,44.943,57.27,43.782z M64.233,34.302c0,1.935,0.418,3.561,1.257,4.884c0.999,1.579,2.386,2.369,4.158,2.369
		c1.708,0,3.063-0.76,4.062-2.273c0.903-1.354,1.354-2.949,1.354-4.786c0-1.839-0.434-3.416-1.306-4.739
		c-1.032-1.546-2.401-2.319-4.11-2.319c-1.709,0-3.038,0.675-3.989,2.029C64.707,30.819,64.233,32.432,64.233,34.302z"/>
	<path fill="#FFFFFF" d="M88.989,10.899c1.031,0,1.934,0.371,2.708,1.112c0.774,0.741,1.161,1.627,1.161,2.66
		c0,1.129-0.38,2.086-1.137,2.876c-0.757,0.789-1.667,1.184-2.732,1.184c-1.064,0-1.99-0.411-2.78-1.232
		c-0.791-0.822-1.185-1.766-1.185-2.828c0-0.998,0.394-1.879,1.185-2.636C87,11.279,87.925,10.899,88.989,10.899z M85.507,43.777
		V25.213c0-1.163,0.322-2.097,0.967-2.805c0.644-0.708,1.482-1.063,2.514-1.063c1.03,0,1.868,0.355,2.514,1.063
		c0.644,0.711,0.968,1.644,0.968,2.805v18.564c0,1.161-0.324,2.098-0.968,2.806c-0.644,0.709-1.482,1.063-2.514,1.063
		s-1.87-0.354-2.514-1.063C85.83,45.875,85.507,44.938,85.507,43.777z"/>
	<path fill="#FFFFFF" d="M95.662,43.102l10.927-15.376h-8.026c-0.871,0-1.62-0.281-2.249-0.846
		c-0.629-0.563-0.943-1.311-0.943-2.246s0.297-1.669,0.895-2.199c0.596-0.533,1.362-0.799,2.296-0.799h15.764
		c0.547,0,1.015,0.114,1.401,0.337c0.613,0.388,0.919,0.986,0.919,1.79c0,0.485-0.048,0.855-0.145,1.112
		c-0.097,0.259-0.307,0.597-0.629,1.014l-10.928,15.375h9.189c0.87,0,1.603,0.268,2.199,0.798c0.596,0.533,0.895,1.266,0.895,2.202
		c0,0.966-0.291,1.725-0.871,2.272c-0.579,0.549-1.32,0.821-2.223,0.821H97.887c-0.838,0-1.516-0.201-2.03-0.604
		c-0.517-0.404-0.774-1.009-0.774-1.814c0-0.388,0.081-0.757,0.242-1.113C95.484,43.474,95.598,43.229,95.662,43.102z"/>
	<path fill="#FFFFFF" d="M140.438,25.407c0,0.803-0.243,1.568-0.727,2.293c-0.484,0.726-1.112,1.087-1.887,1.087
		c-0.483,0-1.562-0.29-3.24-0.871c-0.933-0.32-1.692-0.483-2.271-0.483c-1.87,0-3.354,0.725-4.447,2.175
		c-0.97,1.289-1.453,2.919-1.453,4.886c0,1.9,0.502,3.513,1.5,4.833c1.128,1.485,2.596,2.225,4.4,2.225
		c0.58,0,1.33-0.153,2.249-0.46c0.919-0.306,1.876-0.636,2.876-0.989c0.839,0,1.549,0.289,2.128,0.869
		c0.58,0.582,0.872,1.29,0.872,2.129c0,1.579-1.098,2.835-3.288,3.771c-1.678,0.708-3.419,1.063-5.225,1.063
		c-3.674,0-6.672-1.296-8.995-3.895c-2.32-2.596-3.481-5.777-3.481-9.547c0-3.644,1.178-6.794,3.531-9.452
		c2.354-2.661,5.335-3.989,8.945-3.989c1.967,0,3.723,0.289,5.271,0.869C139.356,22.731,140.438,23.891,140.438,25.407z"/>
	<path fill="#FFFFFF" d="M143.434,43.782V14.039c0-1.161,0.322-2.092,0.97-2.802c0.643-0.708,1.481-1.063,2.513-1.063
		c1.03,0,1.869,0.355,2.514,1.061c0.645,0.707,0.97,1.637,0.97,2.792v9.447c0.706-0.839,1.643-1.451,2.802-1.837
		c1.161-0.387,2.355-0.58,3.577-0.58c2.837,0,5.142,0.837,6.915,2.513c1.773,1.679,2.66,3.965,2.66,6.864v13.346
		c0,1.161-0.323,2.098-0.968,2.806c-0.645,0.709-1.484,1.063-2.515,1.063c-1.031,0-1.869-0.354-2.515-1.063
		c-0.643-0.708-0.968-1.645-0.968-2.806V31.593c0-1.549-0.418-2.723-1.255-3.529c-0.839-0.807-1.937-1.209-3.289-1.209
		c-1.386,0-2.474,0.443-3.264,1.331c-0.79,0.885-1.185,2.024-1.185,3.408v12.185c0,1.161-0.322,2.098-0.967,2.806
		c-0.646,0.709-1.486,1.063-2.517,1.063s-1.869-0.354-2.513-1.062C143.756,45.876,143.434,44.943,143.434,43.782z"/>
	<path fill="#FFFFFF" d="M194.497,25.888v17.213c0,1.355-0.129,2.32-0.388,2.9c-0.517,1.098-1.515,1.646-2.997,1.646
		c-0.969,0-1.693-0.241-2.177-0.725c-0.481-0.484-0.854-1.241-1.11-2.273c-0.936,1.064-1.951,1.879-3.048,2.44
		c-1.096,0.564-2.306,0.847-3.626,0.847c-3.256,0-5.988-1.266-8.196-3.796c-2.207-2.53-3.311-5.745-3.311-9.646
		c0-3.804,1.112-6.996,3.335-9.572c2.225-2.579,4.948-3.869,8.172-3.869c1.386,0,2.651,0.26,3.796,0.775s2.104,1.32,2.878,2.417
		c0.096-0.871,0.459-1.571,1.088-2.104c0.629-0.532,1.363-0.798,2.2-0.798c1.481,0,2.466,0.515,2.949,1.548
		C194.351,23.503,194.497,24.502,194.497,25.888z M176.605,34.495c0,1.902,0.435,3.499,1.308,4.786
		c1.03,1.514,2.432,2.273,4.206,2.273c1.708,0,3.063-0.741,4.062-2.223c0.903-1.355,1.354-2.968,1.354-4.837
		c0-1.839-0.437-3.416-1.306-4.739c-1.031-1.546-2.402-2.319-4.11-2.319c-1.742,0-3.128,0.756-4.158,2.271
		C177.056,31.061,176.605,32.656,176.605,34.495z"/>
	<path fill="#FFFFFF" d="M200.684,43.777V27.725h-1.547c-0.902,0-1.644-0.272-2.225-0.821c-0.579-0.547-0.87-1.307-0.87-2.271
		c0-0.871,0.301-1.59,0.896-2.152c0.596-0.565,1.329-0.847,2.198-0.847h1.547v-4.159c0-1.161,0.322-2.097,0.97-2.805
		c0.643-0.708,1.482-1.065,2.513-1.065c1.032,0,1.869,0.357,2.516,1.065c0.643,0.708,0.966,1.644,0.966,2.805v4.159h2.031
		c0.969,0,1.756,0.232,2.368,0.701c0.612,0.466,0.919,1.231,0.919,2.294c0,1.033-0.307,1.808-0.919,2.323
		c-0.612,0.515-1.403,0.771-2.368,0.771h-2.031v16.053c0,1.162-0.322,2.095-0.966,2.807c-0.646,0.706-1.483,1.063-2.516,1.063
		c-1.03,0-1.87-0.357-2.513-1.063C201.006,45.875,200.684,44.938,200.684,43.777z"/>
</g>
</svg>
