<?xml version="1.0" encoding="utf-8"?>
<!-- Generator: Adobe Illustrator 16.0.0, SVG Export Plug-In . SVG Version: 6.00 Build 0)  -->
<!DOCTYPE svg PUBLIC "-//W3C//DTD SVG 1.1 Basic//EN" "http://www.w3.org/Graphics/SVG/1.1/DTD/svg11-basic.dtd">
<svg version="1.1" baseProfile="basic" id="Layer_1"
	 xmlns="http://www.w3.org/2000/svg" xmlns:xlink="http://www.w3.org/1999/xlink" x="0px" y="0px" width="1052px" height="1071px"
	 viewBox="0 0 1052 1071" xml:space="preserve">
<path fill="#FFFFFF" d="M844.172,471c0,166.334-134.843,301.171-301.172,301.171c-166.333,0-301.172-134.837-301.172-301.171
	c0-166.331,134.839-301.169,301.172-301.169C709.329,169.831,844.172,304.668,844.172,471z"/>
<g>
	<g>
		<path fill="#FFFFFF" d="M138.216,475.865c-1.275-110.507,42.281-221.137,129.55-301.975
			C355.035,93.051,468.668,58.067,578.753,67.779l2.944-2.726c-7.665-0.723-15.372-1.257-23.126-1.553
			c-108.844-4.162-212.799,34.313-292.708,108.335c-79.911,74.023-126.212,174.736-130.375,283.583
			c-0.296,7.751-0.351,15.476-0.218,23.175L138.216,475.865z"/>
		<path fill="#FFFFFF" d="M892.594,266.51l2.178-2.021c-14.782-25.075-32.354-48.75-52.613-70.617
			c-28.811-31.104-61.685-57.089-97.486-77.507l-2.279,2.11c35.507,20.054,68.553,45.824,97.712,77.3
			C860.532,217.825,878.003,241.573,892.594,266.51z"/>
		<path fill="#FFFFFF" d="M944.672,420.545c15.539,125.045-27.164,255.587-126.455,347.568
			C654.391,919.87,397.641,910.056,245.88,746.224c-29.16-31.475-52.329-66.396-69.613-103.327l-2.278,2.111
			c17.625,37.257,41.022,72.017,69.837,103.117c74.024,79.918,174.734,126.217,283.582,130.374
			c108.848,4.164,212.801-34.306,292.712-108.335c79.909-74.021,126.209-174.733,130.374-283.581
			c0.886-23.142-0.175-46.06-3.079-68.579L944.672,420.545z"/>
	</g>
	<g>
		<path fill="#FFFFFF" d="M248.624,309.642c12.376-22.575,27.539-44.072,45.561-63.973
			C415.89,111.282,622.452,98.446,759.799,214.751l1.802-1.99c-65.734-55.734-148.847-83.989-235.34-79.706
			c-90.268,4.47-173.394,43.824-234.062,110.816c-18.36,20.271-33.977,42.348-46.737,65.77H248.624z"/>
		<path fill="#FFFFFF" d="M208.029,451.65h-2.861c-0.662,11.938-0.719,23.976-0.12,36.083
			c4.283,86.49,40.607,166.409,102.565,226.315l1.801-1.991C236.914,641.868,202.675,546.016,208.029,451.65z"/>
		<path fill="#FFFFFF" d="M840.579,309.642c-3.403-6.265-7.012-12.426-10.816-18.474l-1.97,2.172
			c3.343,5.357,6.503,10.798,9.517,16.301H840.579z"/>
		<path fill="#FFFFFF" d="M880.793,451.65h-2.862c5.019,86.736-23.331,175.349-86.124,244.686
			C688.928,809.937,525.421,836.65,394.339,771.955l-1.969,2.174c51.288,25.589,108.54,37.73,167.36,34.816
			c90.268-4.467,173.393-43.824,234.064-110.808c60.667-66.989,91.618-153.6,87.15-243.868
			C880.902,453.396,880.843,452.523,880.793,451.65z"/>
	</g>
	<g>
		<path fill="#FFFFFF" d="M679.976,807.28c4.936-2.063,9.888-4.259,14.724-6.538l-1.145-2.425c-4.796,2.261-9.715,4.446-14.612,6.49
			L679.976,807.28z"/>
		<path fill="#FFFFFF" d="M249.256,687.032l-2.147,1.598c3.193,4.288,6.525,8.561,9.896,12.685l2.076-1.694
			C255.734,695.521,252.43,691.285,249.256,687.032z"/>
		<path fill="#FFFFFF" d="M231.334,660.624l-2.284,1.406c2.796,4.536,5.734,9.083,8.733,13.495l2.216-1.504
			C237.025,669.636,234.108,665.131,231.334,660.624z"/>
		<path fill="#FFFFFF" d="M192.48,573.233l-2.57,0.753c1.505,5.142,3.145,10.308,4.87,15.358l2.533-0.864
			C195.601,583.465,193.974,578.333,192.48,573.233z"/>
		<path fill="#FFFFFF" d="M291.769,734.646l-1.836,1.952c3.893,3.652,7.925,7.271,11.982,10.759l1.747-2.024
			C299.631,741.865,295.63,738.271,291.769,734.646z"/>
		<path fill="#FFFFFF" d="M215.814,632.711l-2.401,1.197c2.39,4.779,4.919,9.577,7.519,14.251l2.339-1.303
			C220.691,642.218,218.184,637.457,215.814,632.711z"/>
		<path fill="#FFFFFF" d="M202.822,603.494l-2.493,0.981c1.955,4.98,4.044,9.979,6.215,14.857l2.445-1.084
			C206.839,613.401,204.762,608.438,202.822,603.494z"/>
		<path fill="#FFFFFF" d="M649.724,818.356c5.1-1.614,10.228-3.361,15.246-5.2l-0.921-2.514c-4.98,1.823-10.073,3.562-15.135,5.16
			L649.724,818.356z"/>
		<path fill="#FFFFFF" d="M586.539,829.64l0.348,2.66c5.304-0.698,10.662-1.522,15.924-2.449l-0.461-2.639
			C597.121,828.133,591.802,828.953,586.539,829.64z"/>
		<path fill="#FFFFFF" d="M618.036,824.094l0.576,2.615c5.222-1.158,10.488-2.445,15.646-3.832l-0.69-2.584
			C628.445,821.662,623.221,822.947,618.036,824.094z"/>
		<path fill="#FFFFFF" d="M316.018,755.479l-1.655,2.111c4.207,3.302,8.543,6.557,12.885,9.669l1.561-2.179
			C324.496,761.991,320.195,758.759,316.018,755.479z"/>
		<path fill="#FFFFFF" d="M342.013,774.113l-1.464,2.244c4.479,2.922,9.088,5.782,13.693,8.505l1.361-2.307
			C351.034,779.853,346.462,777.017,342.013,774.113z"/>
		<path fill="#FFFFFF" d="M408.463,808.244c-3.362-1.311-6.719-2.654-10.021-4.053l-1.046,2.465
			c3.774,1.604,7.619,3.132,11.461,4.612L408.463,808.244z"/>
		<path fill="#FFFFFF" d="M369.555,790.396l-1.261,2.363c4.725,2.518,9.568,4.965,14.397,7.267l1.152-2.416
			C379.053,795.322,374.244,792.893,369.555,790.396z"/>
		<path fill="#FFFFFF" d="M269.456,711.768l-1.999,1.788c3.558,3.979,7.255,7.942,10.986,11.765l1.917-1.87
			C276.656,719.655,272.988,715.724,269.456,711.768z"/>
		<path fill="#FFFFFF" d="M259.97,241.736l-2.068-1.702c-3.4,4.141-6.747,8.405-9.947,12.674l2.147,1.607
			C253.275,250.079,256.599,245.847,259.97,241.736z"/>
		<path fill="#FFFFFF" d="M302.926,194.092c-4.054,3.466-8.092,7.074-12,10.728l1.829,1.958c3.883-3.626,7.886-7.208,11.911-10.648
			L302.926,194.092z"/>
		<path fill="#FFFFFF" d="M279.406,216.067c-3.733,3.812-7.44,7.762-11.015,11.746l1.993,1.791
			c3.55-3.956,7.227-7.879,10.935-11.661L279.406,216.067z"/>
		<path fill="#FFFFFF" d="M325.986,175.958c-3.576,2.588-7.135,5.242-10.604,7.95l1.65,2.111c3.062-2.39,6.197-4.734,9.348-7.034
			L325.986,175.958z"/>
		<path fill="#FFFFFF" d="M476.03,115.222l-0.467-2.638c-4.748,0.841-9.532,1.801-14.263,2.834l0.348,2.665
			C466.416,117.037,471.242,116.07,476.03,115.222z"/>
		<path fill="#FFFFFF" d="M554.828,832.419l0.346,2.666c5.22-0.234,10.5-0.579,15.702-1.03l-0.233-2.673
			C565.405,831.842,560.08,832.19,554.828,832.419z"/>
		<path fill="#FFFFFF" d="M238.575,265.812c-3.016,4.415-5.977,8.957-8.799,13.503l2.278,1.414
			c2.799-4.512,5.736-9.023,8.733-13.407L238.575,265.812z"/>
		<path fill="#FFFFFF" d="M221.58,293.197c-2.614,4.661-5.163,9.447-7.576,14.233l2.391,1.207c2.396-4.75,4.927-9.501,7.522-14.128
			L221.58,293.197z"/>
		<path fill="#FFFFFF" d="M185.918,382.896c-1.3,5.196-2.5,10.497-3.567,15.752l2.627,0.532c1.059-5.217,2.25-10.476,3.54-15.634
			L185.918,382.896z"/>
		<path fill="#FFFFFF" d="M207.058,321.986c-2.195,4.883-4.313,9.88-6.291,14.855l2.487,0.989c1.967-4.937,4.067-9.898,6.249-14.744
			L207.058,321.986z"/>
		<path fill="#FFFFFF" d="M195.135,351.963c-1.754,5.058-3.423,10.228-4.953,15.361l2.568,0.766
			c1.518-5.097,3.173-10.228,4.919-15.25L195.135,351.963z"/>
		<path fill="#FFFFFF" d="M888.469,575.423c1.538-5.144,2.979-10.378,4.283-15.567l-2.6-0.653c-1.293,5.15-2.728,10.35-4.251,15.456
			L888.469,575.423z"/>
		<path fill="#FFFFFF" d="M869.929,324.48l2.451-1.083c-2.163-4.885-4.471-9.789-6.856-14.583l-2.399,1.194
			C865.491,314.767,867.781,319.637,869.929,324.48z"/>
		<path fill="#FFFFFF" d="M819.931,243.052l2.078-1.693c-3.377-4.144-6.89-8.265-10.438-12.25l-1.999,1.783
			C813.094,234.847,816.579,238.938,819.931,243.052z"/>
		<path fill="#FFFFFF" d="M709.118,793.554c4.712-2.48,9.44-5.113,14.042-7.802l-1.35-2.315c-4.57,2.678-9.261,5.283-13.941,7.746
			L709.118,793.554z"/>
		<path fill="#FFFFFF" d="M838.985,268.668l2.217-1.501c-2.992-4.42-6.124-8.831-9.306-13.115l-2.153,1.6
			C832.903,259.904,836.013,264.282,838.985,268.668z"/>
		<path fill="#FFFFFF" d="M540.461,109.598l0.006-2.68c-5.341-0.011-10.758,0.102-16.111,0.328l0.118,2.676
			C529.781,109.697,535.161,109.587,540.461,109.598z"/>
		<path fill="#FFFFFF" d="M491.836,112.778l0.779-0.104c5.278-0.688,10.629-1.267,15.903-1.723l-0.233-2.67
			c-5.31,0.459-10.695,1.044-16.021,1.737l-0.774,0.102L491.836,112.778z"/>
		<path fill="#FFFFFF" d="M572.4,111.069l0.244-2.668c-5.324-0.482-10.734-0.851-16.072-1.096l-0.123,2.674
			C561.753,110.224,567.119,110.59,572.4,111.069z"/>
		<path fill="#FFFFFF" d="M665.814,132.388l0.942-2.509c-5.033-1.881-10.159-3.671-15.24-5.318l-0.829,2.548
			C655.73,128.742,660.819,130.52,665.814,132.388z"/>
		<path fill="#FFFFFF" d="M635.339,122.508l0.712-2.584c-5.151-1.422-10.422-2.748-15.661-3.944l-0.592,2.614
			C624.992,119.777,630.225,121.097,635.339,122.508z"/>
		<path fill="#FFFFFF" d="M604.086,115.375l0.482-2.634c-5.271-0.958-10.624-1.809-15.916-2.526l-0.359,2.654
			C593.545,113.583,598.857,114.426,604.086,115.375z"/>
		<path fill="#FFFFFF" d="M855.686,295.855l2.339-1.301c-2.592-4.671-5.317-9.341-8.104-13.878l-2.286,1.403
			C850.401,286.583,853.108,291.219,855.686,295.855z"/>
		<path fill="#FFFFFF" d="M810.112,714.849c3.573-3.979,7.106-8.085,10.502-12.212l-2.07-1.704
			c-3.368,4.097-6.875,8.177-10.429,12.124L810.112,714.849z"/>
		<path fill="#FFFFFF" d="M830.573,689.973c3.205-4.269,6.37-8.672,9.391-13.089l-2.205-1.517
			c-3.007,4.384-6.144,8.758-9.327,12.995L830.573,689.973z"/>
		<path fill="#FFFFFF" d="M848.776,663.388c2.83-4.542,5.589-9.212,8.215-13.871l-2.337-1.314
			c-2.604,4.626-5.345,9.261-8.147,13.768L848.776,663.388z"/>
		<path fill="#FFFFFF" d="M736.857,777.333c4.474-2.897,8.955-5.929,13.309-9.023l-1.547-2.188
			c-4.329,3.075-8.773,6.09-13.218,8.956L736.857,777.333z"/>
		<path fill="#FFFFFF" d="M864.582,635.291c2.418-4.778,4.757-9.671,6.964-14.546l-2.446-1.105
			c-2.184,4.842-4.507,9.701-6.907,14.444L864.582,635.291z"/>
		<path fill="#FFFFFF" d="M763.068,758.702c4.205-3.276,8.4-6.697,12.474-10.174l-1.74-2.04c-4.041,3.452-8.207,6.847-12.38,10.102
			L763.068,758.702z"/>
		<path fill="#FFFFFF" d="M787.553,737.82c3.91-3.652,7.789-7.432,11.53-11.238l-1.916-1.878c-3.71,3.779-7.561,7.535-11.444,11.15
			L787.553,737.82z"/>
		<path fill="#FFFFFF" d="M896.743,416.324l2.649-0.406c-0.813-5.31-1.751-10.648-2.781-15.868l-2.631,0.521
			C895.006,405.752,895.937,411.051,896.743,416.324z"/>
		<path fill="#FFFFFF" d="M877.849,605.897c1.985-4.971,3.886-10.059,5.648-15.121l-2.532-0.878
			c-1.748,5.023-3.635,10.07-5.605,15.004L877.849,605.897z"/>
		<path fill="#FFFFFF" d="M881.573,354.259l2.54-0.864c-1.728-5.061-3.59-10.154-5.534-15.129l-2.494,0.974
			C878.018,344.182,879.863,349.233,881.573,354.259z"/>
		<path fill="#FFFFFF" d="M890.529,384.956l2.602-0.635c-1.265-5.186-2.667-10.422-4.163-15.56l-2.577,0.75
			C887.88,374.612,889.271,379.808,890.529,384.956z"/>
		<path fill="#FFFFFF" d="M902.878,447.945c-0.339-5.31-0.811-10.709-1.395-16.05l-2.662,0.292
			c0.577,5.299,1.041,10.66,1.385,15.931L902.878,447.945z"/>
		<path fill="#FFFFFF" d="M896.333,544.108c1.069-5.237,2.039-10.573,2.871-15.855l-2.646-0.418
			c-0.827,5.24-1.787,10.538-2.849,15.737L896.333,544.108z"/>
		<path fill="#FFFFFF" d="M901.365,512.289c0.6-5.312,1.088-10.71,1.45-16.047l-2.676-0.18c-0.358,5.295-0.838,10.649-1.436,15.925
			L901.365,512.289z"/>
		<path fill="#FFFFFF" d="M903.55,480.146c0.126-5.347,0.132-10.77,0.021-16.108l-2.68,0.056c0.109,5.3,0.102,10.68-0.021,15.992
			L903.55,480.146z"/>
	</g>
</g>
<path fill="#EDBDA9" d="M645.145,664.178c-13.197-22.531-50.181-27.409-30.651-41.682c-0.552,0.398,7.47-6.638,9.421-8.844
	c0.826-0.93,1.418-1.565,1.906-2.07c0.28-0.535,0.621-1.163,1.114-2.03c0.823-1.438,3.947-9.433,2.983-6.094
	c0.825-2.602,1.605-5.221,2.129-7.908c0.241-1.357,0.417-2.32,0.544-2.94c0.142-1.553,0.309-3.101,0.405-4.655
	c0.227-4.196,0.428-8.387,0.475-12.59c0.106-9.228,0.029-18.457,0.013-27.687c-0.022-12.194,4.004-21.768,10.316-28.777
	c-11.408-7.356-23.78-8.333-28.242-2.011l-1.585,2.252l-6.96,9.869l-0.408,0.577l-5.207-3.672l6.897-9.773l7.004-9.934l5.644-7.997
	c4.681-6.637-1.118-18.779-12.914-27.103c-11.811-8.331-25.186-9.71-29.866-3.076l-5.646,8.002l-7.006,9.93l-6.893,9.775
	l-5.204-3.674l31.483-44.633l-0.044-0.032c0.251-0.354,0.528-0.656,0.781-1.016l41.4-58.689c7.575-10.74,4.12-26.197-7.676-34.517
	c-11.817-8.335-27.526-6.39-35.101,4.345l-41.396,58.688c-0.254,0.36-0.456,0.718-0.676,1.094l-0.066-0.045l-91.146,129.213
	l-24.059,47.15l-6.752-130.46c3.651-15.373,5.923-30.281-6.789-39.247c-12.688-8.951-30.266-5.925-39.229,6.785l-7.451,109.26
	c0,0-12.598,29.836-3.843,76.484l20.508,41.262c0.892,237.83,14.658,156.346,0.892,175.477l173.929,19.693
	c4.925-19.693,1.001-115.884,1.001-115.884c7.028-2.24,26.821-8.214,36.798-13.467c4.758-2.502,12.6-7.518,22.099-19.229
	C635.301,680.729,649.471,671.562,645.145,664.178z"/>
<path fill="#EDBDA9" d="M704.687,315.44c-11.817-8.334-27.527-6.39-35.101,4.346l-41.398,58.688
	c-0.252,0.361-0.453,0.718-0.675,1.094l-0.066-0.046L536.301,508.74l-0.392-0.275c0.083,0.515,0.161,1.03,0.243,1.547
	c3.079,19.075,4.462,41.266,11.168,59.732c0.021,0.021,0.047,0.049,0.065,0.066c0.086,0.039,0.166,0.082,0.257,0.127
	c0.117-0.806,1.199,0.166,1.798,0.952c0.122,0.067,0.251,0.136,0.357,0.198c0.348,0.102,0.651,0.189,1.079,0.32
	c2.52,0.82,5.062,1.562,7.625,2.227c0.184,0.047,0.37,0.082,0.555,0.127c0.014-0.016,0.037-0.047,0.047-0.062
	c2.807-3.834,5.596-7.678,8.327-11.566c16.962-24.159,32.639-49.153,47.517-74.641c7.364-12.619,18.574-19.26,30.389-21.021
	c-0.393-3.405-0.419-6.884-0.071-10.345l-1.319,1.875l-5.207-3.673l12.914-18.303c1.328-2.304,2.833-4.448,4.507-6.394
	l14.065-19.936l-0.045-0.032c0.252-0.354,0.527-0.656,0.781-1.017l41.4-58.688C719.937,339.218,716.481,323.762,704.687,315.44z"/>
<path fill-rule="evenodd" clip-rule="evenodd" fill="#123544" d="M666.428,666.705c0,7.591-6.321,13.797-14.06,13.797H433.631
	c-7.729,0-14.058-6.206-14.058-13.797v-439.21c0-7.592,6.329-13.802,14.058-13.802h218.737c7.738,0,14.06,6.21,14.06,13.802V666.705
	z"/>
<polygon fill-rule="evenodd" clip-rule="evenodd" fill="#64B8CB" points="643.926,265.236 638.017,265.236 626.716,265.236 
	613.861,265.236 603.133,265.236 602.398,265.236 588.025,265.236 551.868,265.236 539.331,265.236 526.473,265.236 
	514.438,265.236 496.401,265.236 485.203,265.236 449.863,265.236 448.58,265.236 437.362,265.236 430.916,265.236 430.912,315.021 
	430.894,315.006 430.894,328.417 430.912,328.431 430.909,365.427 430.909,365.427 430.906,410.227 430.894,410.227 430.894,421.3 
	430.906,421.3 430.9,532.463 430.894,532.463 430.894,542.527 430.9,542.527 430.897,593.908 430.894,593.906 430.894,607.318 
	430.897,607.32 430.894,640.776 431.693,640.776 443.268,640.776 468.95,640.776 483.57,640.776 483.572,640.776 485.203,640.776 
	494.668,640.776 496.401,640.776 507.501,640.776 509.137,640.776 518.898,640.776 553.1,640.776 553.656,640.776 565.865,640.776 
	596.181,640.776 608.637,640.776 611.383,640.776 626.277,640.776 655.105,640.776 655.105,610.098 655.105,589.577 
	655.105,584.699 655.105,578.498 655.105,566.434 655.105,561.176 655.105,547.518 655.105,421.298 655.105,410.226 
	655.105,380.974 655.105,365.427 655.105,299.161 655.105,286.824 655.105,265.236 "/>
<g>
	<rect x="320.65" y="778.199" fill="#FFFFFF" width="279.669" height="292.801"/>
	<path fill="#123544" d="M546.798,816.392c7.026,0.388,13.073-4.972,13.461-12.009c0.397-7.042-4.985-13.05-12.008-13.438
		c-7.012-0.407-13.077,4.967-13.463,11.997C534.389,809.97,539.768,815.989,546.798,816.392z"/>
	<rect x="303.503" y="830.814" fill="#123544" width="308.634" height="240.186"/>
</g>
<path fill="#EDBDA9" d="M504.61,687.836c0.86-3.499,1.618-6.999,2.217-10.478c-0.629-1.88,1.295-39.143-42.183-69.603
	c-20.127-14.094-43.849-10.944-54.72-9.951v90.031H504.61z"/>
<path fill="#EDBDA9" d="M696.481,560.362c2.803,10.563-3.194,21.318-13.386,24.02l-46.843,12.416
	c-10.19,2.697-20.724-3.674-23.523-14.235l0,0c-2.797-10.563,3.193-21.318,13.383-24.02l46.843-12.414
	C683.146,543.432,693.684,549.803,696.481,560.362L696.481,560.362z"/>
<path fill="#EDBDA9" d="M695.462,514.046c2.712,10.983-3.394,21.937-13.631,24.464l-47.044,11.607
	c-10.24,2.527-20.738-4.327-23.444-15.314l0,0c-2.709-10.984,3.392-21.937,13.624-24.464l47.047-11.612
	C682.255,496.201,692.756,503.06,695.462,514.046L695.462,514.046z"/>
<path fill="#EDBDA9" d="M691.399,452.276c5.636,11.953,1.563,25.721-9.091,30.745l-48.978,23.087
	c-10.659,5.021-23.866-0.599-29.5-12.555l0,0c-5.634-11.954-1.566-25.719,9.089-30.743l48.977-23.087
	C672.555,434.701,685.766,440.319,691.399,452.276L691.399,452.276z"/>
<path opacity="0.3" fill="#FFFFFF" d="M624.755,465.397c0,0,5.493,7.282,9.251,14.652c3.209,6.293,4.767,12.837,4.767,12.837
	l-15.242,7.77c0,0-6.516-2.93-10.921-12.224c-4.212-8.922-3.095-15.263-3.095-15.263L624.755,465.397z"/>
<path opacity="0.3" fill="#FFFFFF" d="M389.307,437.501c0,0-5.151-5.767-15.013-6.196c-0.084-0.004-0.165,0.003-0.25,0
	c-0.341,5.885-1.792,27.132-2.236,34.09c0.1,0.001,0.198,0.005,0.298,0.005c8.273-0.015,17.251-2.396,17.251-2.396L389.307,437.501z
	"/>
<path opacity="0.3" fill="#FFFFFF" d="M637.444,513.33c0,0,3.947,7.697,6.121,15.205c1.857,6.408,1.989,12.801,1.989,12.801
	l-17.119,4.957c0,0-5.938-3.76-8.344-13.179c-2.29-9.037,0.234-14.825,0.234-14.825L637.444,513.33z"/>
<path opacity="0.3" fill="#FFFFFF" d="M635.231,562.063c0,0,3.619,7.242,5.659,14.286c1.741,6.016,1.952,11.983,1.952,11.983
	l-15.148,4.388c0,0-5.333-3.595-7.604-12.43c-2.169-8.47-0.004-13.842-0.004-13.842L635.231,562.063z"/>
<path fill="#F76031" d="M829.322,243.074H587.948c-6.166,0-11.164,4.998-11.164,11.163v32.692v1.046v45.009
	c0,6.166,4.998,11.163,11.164,11.163h13.514v30.332l32.978-30.332h194.883c6.166,0,11.165-4.998,11.165-11.163v-45.009v-1.046
	v-32.692C840.487,248.071,835.488,243.074,829.322,243.074z"/>
<path fill="#F76031" d="M829.322,491.152H587.948c-6.166,0-11.164,4.998-11.164,11.164v32.689v1.047v45.008
	c0,6.168,4.998,11.164,11.164,11.164h13.514v30.33l32.978-30.33h194.883c6.166,0,11.165-4.996,11.165-11.164v-45.008v-1.047v-32.689
	C840.487,496.15,835.488,491.152,829.322,491.152z"/>
<path fill="#FFD11D" d="M250.296,367.736h241.375c6.166,0,11.164,4.998,11.164,11.162v32.692v1.046v45.009
	c0,6.166-4.998,11.165-11.164,11.165h-13.514v30.331l-32.978-30.331H250.296c-6.165,0-11.164-4.999-11.164-11.165v-45.009v-1.046
	v-32.692C239.132,372.733,244.131,367.736,250.296,367.736z"/>
<g>
	<polygon fill="#FFFFFF" points="772.035,315.145 734.689,315.145 722.471,315.145 689.848,315.145 640.285,315.145 
		640.285,306.289 689.848,306.289 722.471,306.289 734.689,306.289 772.035,306.289 816.877,306.289 816.877,315.145 	"/>
	<rect x="640.285" y="275.229" fill="#FFFFFF" width="82.186" height="8.856"/>
	<polygon fill="#FFFFFF" points="734.689,299.052 722.471,299.052 689.848,299.052 640.285,299.052 640.285,290.2 689.848,290.2 
		722.471,290.2 734.689,290.2 772.035,290.2 816.877,290.2 816.877,299.052 772.035,299.052 	"/>
</g>
<g>
	<circle opacity="0.5" fill="#FFFFFF" cx="614.805" cy="295.188" r="16.037"/>
	<g>
		<circle fill="#FFFFFF" cx="614.805" cy="291.853" r="3.521"/>
		<path fill="#FFFFFF" d="M622.787,303.627c-1.875-5.719-3.439-7.294-7.982-7.294c-4.542,0-6.106,1.575-7.981,7.294H622.787z"/>
	</g>
</g>
<g>
	<polygon fill="#FFFFFF" points="432.37,439.646 395.025,439.646 382.805,439.646 350.181,439.646 300.62,439.646 300.62,430.79 
		350.181,430.79 382.805,430.79 395.025,430.79 432.37,430.79 477.211,430.79 477.211,439.646 	"/>
	<rect x="300.62" y="399.73" fill="#FFFFFF" width="82.185" height="8.857"/>
	<polygon fill="#FFFFFF" points="395.025,423.553 382.805,423.553 350.181,423.553 300.62,423.553 300.62,414.701 350.181,414.701 
		382.805,414.701 395.025,414.701 432.37,414.701 477.211,414.701 477.211,423.553 432.37,423.553 	"/>
</g>
<g>
	<circle opacity="0.5" fill="#FFFFFF" cx="275.139" cy="419.688" r="16.037"/>
	<g>
		<circle fill="#FFFFFF" cx="275.141" cy="416.354" r="3.52"/>
		<path fill="#FFFFFF" d="M283.121,428.127c-1.875-5.719-3.438-7.293-7.979-7.293c-4.545,0-6.109,1.574-7.983,7.293H283.121z"/>
	</g>
</g>
<g>
	<polygon fill="#FFFFFF" points="772.035,562.723 734.689,562.723 722.471,562.723 689.848,562.723 640.285,562.723 
		640.285,553.865 689.848,553.865 722.471,553.865 734.689,553.865 772.035,553.865 816.877,553.865 816.877,562.723 	"/>
	<rect x="640.285" y="522.81" fill="#FFFFFF" width="82.186" height="8.854"/>
	<polygon fill="#FFFFFF" points="734.689,546.63 722.471,546.63 689.848,546.63 640.285,546.63 640.285,537.778 689.848,537.778 
		722.471,537.778 734.689,537.778 772.035,537.778 816.877,537.778 816.877,546.63 772.035,546.63 	"/>
</g>
<g>
	<circle opacity="0.5" fill="#FFFFFF" cx="614.805" cy="542.767" r="16.037"/>
	<g>
		<circle fill="#FFFFFF" cx="614.805" cy="539.431" r="3.521"/>
		<path fill="#FFFFFF" d="M622.787,551.203c-1.875-5.718-3.439-7.293-7.982-7.293c-4.542,0-6.106,1.575-7.981,7.293H622.787z"/>
	</g>
</g>
</svg>
