<?xml version="1.0" encoding="utf-8"?>
<!-- Generator: Adobe Illustrator 16.0.0, SVG Export Plug-In . SVG Version: 6.00 Build 0)  -->
<!DOCTYPE svg PUBLIC "-//W3C//DTD SVG 1.1//EN" "http://www.w3.org/Graphics/SVG/1.1/DTD/svg11.dtd">
<svg version="1.1" id="Layer_1" xmlns="http://www.w3.org/2000/svg" xmlns:xlink="http://www.w3.org/1999/xlink" x="0px" y="0px"
	 width="595.279px" height="388px" viewBox="0 0 595.279 388" enable-background="new 0 0 595.279 388" xml:space="preserve">
<g>
	<rect x="418" y="247.207" fill="#FFFFFF" stroke="#434343" stroke-miterlimit="10" width="35.094" height="132.747"/>
	<rect x="418" y="247.207" fill="#BBE5FB" width="17.547" height="132.747"/>
	<rect x="418" y="285.354" fill="#0DBEFC" width="35.094" height="54.932"/>
	<circle opacity="0.5" fill="#0DBEFC" enable-background="new    " cx="435.547" cy="357.83" r="8.393"/>
	<rect x="453.094" y="270.855" fill="#BBE5FB" stroke="#434343" stroke-miterlimit="10" width="22.893" height="109.099"/>
	<rect x="453.493" y="271.111" fill="#89CEF7" width="11.043" height="108.843"/>
	<circle opacity="0.8" fill="#FFFFFF" enable-background="new    " cx="464.537" cy="362.407" r="7.629"/>
</g>
<path fill="#25C2FF" stroke="#7F7F7F" stroke-miterlimit="10" d="M49.337,308.5l2.001,65.167c0,3.313,2.686,6,6,6h40.667
	c3.312,0,6-2.687,6-6l3.001-65.167H49.337z"/>
<path fill="#25C2FF" stroke="#7F7F7F" stroke-miterlimit="10" d="M111.004,319.25c-1.547,0-3.058,0.158-4.516,0.459l-0.387,8.398
	c1.535-0.543,3.181-0.854,4.901-0.854c8.146,0,14.75,6.604,14.75,14.75v1.988c0,8.146-6.604,14.75-14.75,14.75
	c-2.237,0-4.35-0.515-6.248-1.403l-0.387,8.402c2.096,0.652,4.323,1.007,6.635,1.007c12.288,0,22.25-9.962,22.25-22.25v-3
	C133.254,329.212,123.292,319.25,111.004,319.25z"/>
<path fill="none" stroke="#7F7F7F" stroke-miterlimit="10" d="M66.254,258.5c0,0-9,7-5.75,16.25s7.25,14.75,1.5,22.25"/>
<path fill="none" stroke="#7F7F7F" stroke-miterlimit="10" d="M82.504,258.5c0,0-12.25,7-3.25,21.75c0,0,4.584,10-1.083,15.75"/>
<path fill="none" stroke="#7F7F7F" stroke-miterlimit="10" d="M97.249,258.5c0,0-12.25,7-3.25,21.75c0,0,4.584,10-1.083,15.75"/>
<path fill="#FFFFFF" stroke="#7F7F7F" stroke-miterlimit="10" d="M419.072,363.667V198.645c0-3.867-3.136-7-7-7H169.667
	c-3.866,0-7,3.132-7,7v165.022H419.072z"/>
<rect x="173" y="208.482" fill="#FFFFFF" stroke="#7F7F7F" stroke-miterlimit="10" width="235.334" height="144.519"/>
<rect x="173" y="208.482" fill="#0DBEFC" width="235.334" height="22.519"/>
<rect x="354.334" y="216.738" fill="#BBE5FB" width="19.332" height="5.35"/>
<rect x="379.334" y="216.738" fill="#BBE5FB" width="19.332" height="5.35"/>
<rect x="183.651" y="247.199" fill="#BBE5FB" width="90.684" height="37.802"/>
<rect x="183.651" y="296" fill="#BBE5FB" width="90.684" height="12.5"/>
<rect x="292.811" y="247.199" fill="#BBE5FB" width="90.683" height="37.802"/>
<rect x="292.811" y="296" fill="#BBE5FB" width="90.683" height="12.5"/>
<rect x="183.651" y="314.834" fill="#BBE5FB" width="45.342" height="4.416"/>
<line fill="none" x1="183.651" y1="327.001" x2="211" y2="327.001"/>
<line fill="none" x1="183.651" y1="333.668" x2="211" y2="333.668"/>
<rect x="150" y="363.667" fill="#FFFFFF" stroke="#7F7F7F" stroke-miterlimit="10" width="282" height="16"/>
<path fill="none" stroke="#7F7F7F" stroke-miterlimit="10" d="M258.5,363.75c0,5.938,4.812,10.75,10.75,10.75h45.5
	c5.938,0,10.75-4.812,10.75-10.75c0-0.027-0.005-0.055-0.005-0.083h-66.991C258.504,363.695,258.5,363.723,258.5,363.75z"/>
<rect x="328" y="253.333" fill="#FFFFFF" stroke="#7F7F7F" stroke-miterlimit="10" width="80.334" height="99.668"/>
<rect x="328" y="253.333" fill="#204596" width="80.334" height="12.767"/>
<rect x="332.334" y="258" opacity="0.3" fill="#BBE5FB" enable-background="new    " width="33" height="1.717"/>
<circle fill="#0DBEFC" cx="342.166" cy="277.655" r="6.667"/>
<g>
	<circle fill="#0DBEFC" cx="338.153" cy="299.834" r="2.652"/>
	<path fill="#0DBEFC" d="M403.149,300.854c0,0.902-0.73,1.633-1.634,1.633h-56.224c-0.901,0-1.633-0.729-1.633-1.633v-2.039
		c0-0.899,0.729-1.633,1.633-1.633h56.224c0.899,0,1.634,0.73,1.634,1.633V300.854z"/>
</g>
<g>
	<circle opacity="0.3" fill="#0DBEFC" enable-background="new    " cx="400.71" cy="312.817" r="2.653"/>
	<path opacity="0.3" fill="#0DBEFC" enable-background="new    " d="M337.337,313.837c0,0.902,0.73,1.634,1.632,1.634h54.603
		c0.899,0,1.632-0.729,1.632-1.634v-2.04c0-0.9-0.729-1.632-1.632-1.632h-54.603c-0.898,0-1.632,0.729-1.632,1.632V313.837z"/>
</g>
<line opacity="0.5" fill="none" stroke="#0DBEFC" stroke-miterlimit="10" enable-background="new    " x1="328" y1="336.654" x2="408.334" y2="336.654"/>
<polygon fill="#0DBEFC" points="395.523,339.961 401.809,343.59 395.523,347.219 "/>
<circle fill="#0DBEFC" cx="396.538" cy="45.822" r="37.899"/>
<path opacity="0.4" fill="#BBE5FB" enable-background="new    " d="M290.667,363.667V374.5h24.083c5.938,0,10.75-4.812,10.75-10.75
	c0-0.027-0.005-0.055-0.005-0.083H290.667z"/>
<rect x="337.337" y="342.557" opacity="0.5" fill="#0DBEFC" enable-background="new    " width="54.163" height="3.93"/>
<path opacity="0.3" fill="#BBE5FB" enable-background="new    " d="M78.171,308.5H49.337l2.001,65.167c0,3.313,2.686,6,6,6h20.833
	V308.5L78.171,308.5z"/>
<path opacity="0.6" fill="#FFFFFF" enable-background="new    " d="M86.386,350.559c1.817-1.773,2.911-4.022,2.911-6.475
	c0-5.745-5.976-10.402-13.345-10.402c-7.371,0-13.346,4.657-13.346,10.402s5.976,10.402,13.346,10.402
	c0.24,0,0.476-0.021,0.714-0.028l-0.054,0.028h12.685C87.768,353.584,86.841,351.721,86.386,350.559z M79.486,339.034
	c0.906,0,1.642,0.733,1.642,1.641c0,0.908-0.735,1.642-1.642,1.642c-0.907,0-1.641-0.732-1.641-1.642
	C77.845,339.768,78.58,339.034,79.486,339.034z M72.559,339.034c0.906,0,1.642,0.733,1.642,1.641c0,0.908-0.735,1.642-1.642,1.642
	c-0.907,0-1.641-0.732-1.641-1.642C70.918,339.768,71.652,339.034,72.559,339.034z M82.092,345.68
	c-0.082,0.1-0.163,0.196-0.247,0.291c-0.166,0.192-0.341,0.379-0.527,0.553c-0.701,0.662-1.553,1.156-2.457,1.485
	c-0.493,0.179-1.005,0.304-1.522,0.384c-0.536,0.084-1.102,0.154-1.645,0.154c-0.611,0-1.246-0.066-1.847-0.182
	c-1.009-0.189-1.993-0.577-2.862-1.124c-0.399-0.253-0.77-0.548-1.096-0.888c-0.161-0.17-0.311-0.352-0.454-0.535
	c-0.107-0.142-0.384-0.398-0.418-0.569c-0.006-0.029-0.018-0.054-0.018-0.085c0-0.251,0.203-0.456,0.455-0.456
	c0.302,0,0.479,0.33,0.678,0.508c0.167,0.151,0.338,0.294,0.519,0.429c1.434,1.067,3.271,1.547,5.043,1.547
	c2.415,0,4.551-0.896,5.89-2.274c0.012-0.015,0.022-0.024,0.034-0.038c0.08-0.07,0.186-0.121,0.305-0.121
	c0.207,0,0.405,0.151,0.447,0.354C82.413,345.339,82.223,345.521,82.092,345.68z"/>
<line fill="none" stroke="#7F7F7F" stroke-width="2" stroke-linecap="round" stroke-linejoin="round" stroke-miterlimit="10" x1="29" y1="379.954" x2="491.686" y2="379.954"/>
<line fill="none" stroke="#7F7F7F" stroke-width="2" stroke-linecap="round" stroke-linejoin="round" stroke-miterlimit="10" x1="502" y1="379.954" x2="525" y2="379.954"/>
<rect x="354.334" y="271.111" opacity="0.2" fill="#0DBEFC" stroke="#0DBEFC" stroke-miterlimit="10" enable-background="new    " width="47.475" height="3.389"/>
<rect x="354.334" y="279.047" opacity="0.1" fill="#0DBEFC" stroke="#0DBEFC" stroke-miterlimit="10" enable-background="new    " width="47.475" height="3.389"/>
<path fill="#FFFFFF" d="M394.552,26.035C382.14,27.281,372.99,37.37,374.114,48.57c0.609,6.087,4.137,11.245,9.217,14.489
	l-0.292,4.572l5.343-2.165c3.155,1.059,6.638,1.486,10.244,1.125c12.411-1.247,21.562-11.335,20.438-22.535
	C417.938,32.856,406.964,24.789,394.552,26.035z"/>
<g>
	<path fill="#0DBEFC" d="M385.411,51.191l4.953-0.498c0.817-0.082,1.268,0.252,1.342,1.004c0.032,0.318-0.065,0.599-0.295,0.84
		c-0.229,0.241-0.503,0.378-0.819,0.41l-6.729,0.676c-0.436,0.043-0.792-0.038-1.077-0.242c-0.283-0.205-0.445-0.493-0.482-0.863
		c-0.021-0.208,0.004-0.426,0.072-0.655c0.024-0.096,0.079-0.224,0.168-0.384l4.73-8.202l-4.478,0.449
		c-0.353,0.035-0.647-0.035-0.893-0.213c-0.241-0.176-0.379-0.43-0.412-0.76c-0.032-0.331,0.057-0.619,0.269-0.864
		c0.21-0.246,0.479-0.385,0.812-0.418l6.252-0.628c0.467-0.046,0.833,0.037,1.104,0.252c0.271,0.214,0.421,0.492,0.455,0.834
		c0.021,0.182,0.002,0.367-0.049,0.556c-0.051,0.19-0.122,0.381-0.218,0.574L385.411,51.191z"/>
	<path fill="#0DBEFC" d="M399.938,44.352l0.61,6.079c0.048,0.478,0.036,0.824-0.033,1.038c-0.145,0.406-0.478,0.635-1.001,0.688
		c-0.341,0.034-0.604-0.025-0.794-0.179c-0.188-0.154-0.347-0.408-0.475-0.763c-0.293,0.409-0.623,0.732-0.987,0.97
		c-0.368,0.238-0.785,0.38-1.252,0.427c-1.146,0.116-2.158-0.234-3.028-1.05c-0.867-0.815-1.374-1.911-1.512-3.289
		c-0.136-1.343,0.146-2.51,0.839-3.5c0.692-0.989,1.607-1.541,2.748-1.655c0.489-0.049,0.944-0.002,1.368,0.139
		c0.422,0.141,0.79,0.392,1.102,0.751c0.006-0.311,0.106-0.572,0.312-0.781c0.204-0.21,0.452-0.331,0.749-0.36
		c0.521-0.053,0.89,0.095,1.098,0.442C399.804,43.514,399.89,43.862,399.938,44.352z M393.926,48.025
		c0.066,0.671,0.276,1.22,0.63,1.645c0.419,0.499,0.939,0.716,1.565,0.653c0.604-0.061,1.057-0.37,1.354-0.93
		c0.271-0.509,0.372-1.094,0.308-1.755c-0.064-0.649-0.273-1.191-0.629-1.627c-0.419-0.51-0.933-0.735-1.533-0.674
		c-0.613,0.062-1.076,0.379-1.388,0.95C393.963,46.797,393.86,47.376,393.926,48.025z"/>
	<path fill="#0DBEFC" d="M401.29,50.599l-1.055-10.505c-0.041-0.41,0.038-0.75,0.238-1.023c0.203-0.272,0.486-0.428,0.853-0.464
		s0.675,0.059,0.927,0.286c0.253,0.227,0.399,0.545,0.44,0.955l1.055,10.505c0.042,0.41-0.039,0.75-0.241,1.023
		s-0.484,0.428-0.852,0.465c-0.365,0.037-0.672-0.059-0.926-0.287C401.478,51.327,401.331,51.008,401.29,50.599z"/>
	<path fill="#0DBEFC" d="M407.553,41.862c1.267-0.127,2.371,0.245,3.319,1.116c0.912,0.84,1.435,1.902,1.562,3.188
		c0.134,1.321-0.152,2.471-0.859,3.45c-0.735,1.028-1.759,1.608-3.068,1.74c-1.297,0.13-2.399-0.222-3.312-1.056
		s-1.437-1.917-1.567-3.249c-0.13-1.287,0.174-2.441,0.909-3.463C405.271,42.565,406.278,41.99,407.553,41.862z M407.779,44.115
		c-0.614,0.062-1.077,0.379-1.389,0.95c-0.271,0.511-0.373,1.09-0.31,1.739c0.067,0.671,0.277,1.22,0.631,1.645
		c0.419,0.499,0.94,0.716,1.565,0.653c0.626-0.063,1.09-0.374,1.391-0.934c0.271-0.498,0.374-1.084,0.307-1.755
		c-0.062-0.648-0.272-1.191-0.628-1.627C408.928,44.277,408.406,44.052,407.779,44.115z"/>
</g>
<g>
	<path fill="#3B5998" d="M276.85,73.103c22.116,0.179,39.898,18.253,39.72,40.365c-0.181,22.117-18.251,39.898-40.365,39.72
		c-22.116-0.178-39.897-18.25-39.72-40.365C236.663,90.71,254.734,72.925,276.85,73.103L276.85,73.103z"/>
	<path fill="#FFFFFF" d="M281.503,100.709l5.162,0.042l0.061-7.623l-6.066-0.049v0.027c-7.353,0.201-8.893,4.32-9.061,8.66h-0.015
		l-0.031,3.807l-5.005-0.041l-0.061,7.466l5.006,0.041l-0.162,20.011l7.542,0.061l0.162-20.011l6.18,0.05l1.253-7.457l-7.371-0.059
		l0.019-2.299C279.129,101.866,280.114,100.698,281.503,100.709L281.503,100.709z"/>
</g>
<g>
	<path fill="#3F729B" d="M541.714,116.191c13.527,10.501,15.982,29.985,5.48,43.513c-10.502,13.529-29.983,15.983-43.515,5.481
		c-13.526-10.501-15.981-29.984-5.479-43.513C508.701,108.144,528.185,105.688,541.714,116.191L541.714,116.191z"/>
	<path fill="#FFFFFF" d="M541.852,133.468l-16.908-13.126c-2.938-2.281-7.185-1.745-9.462,1.191l-13.131,16.913
		c-2.278,2.937-1.743,7.182,1.192,9.462l16.912,13.128c2.938,2.28,7.183,1.744,9.462-1.192l13.128-16.913
		C545.323,139.995,544.789,135.749,541.852,133.468L541.852,133.468z M541.137,137.854l0.604,0.467l-3.552,4.575l-4.62-3.563
		l3.536-4.587L541.137,137.854z M526.278,136.077c3.821,2.968,1.825,7.169,1.029,8.193c-1.972,2.54-5.648,3.002-8.189,1.03
		c-2.543-1.974-3.005-5.65-1.031-8.19C518.879,136.086,522.454,133.11,526.278,136.077L526.278,136.077z M527.155,157.165
		c-1.13,1.456-3.232,1.722-4.691,0.589l-16.29-12.645c-1.458-1.131-1.726-3.235-0.595-4.693l8.688-11.19l3.828,2.971
		c-1.034,0.598-2.162,1.637-2.938,2.638c-3.229,4.156-2.472,10.161,1.687,13.389c4.155,3.226,10.162,2.467,13.39-1.688
		c0.775-1.001,1.504-2.351,1.827-3.5l3.78,2.936l-8.688,11.19L527.155,157.165z"/>
</g>
<g>
	<path fill="none" stroke="#7F7F7F" stroke-linecap="round" stroke-linejoin="round" d="M162.667,253.333
		c0,0-1.064-0.128-2.962-0.44"/>
	<path fill="none" stroke="#7F7F7F" stroke-linecap="round" stroke-linejoin="round" stroke-dasharray="5.9244,5.9244" d="
		M153.885,251.798c-26.312-5.493-101.203-28.175-76.595-105.467"/>
	<path fill="none" stroke="#7F7F7F" stroke-linecap="round" stroke-linejoin="round" d="M78.223,143.515
		c0.321-0.935,0.657-1.877,1.007-2.827"/>
</g>
<line fill="none" stroke="#7F7F7F" stroke-linecap="round" stroke-linejoin="round" stroke-miterlimit="10" stroke-dasharray="6,6" x1="281" y1="153.189" x2="281" y2="191.645"/>
<path fill="none" stroke="#7F7F7F" stroke-linecap="round" stroke-linejoin="round" stroke-miterlimit="10" stroke-dasharray="6,6" d="
	M508,171.701c0,0-16.314,45.039-85.822,67.299"/>
<line fill="none" stroke="#7F7F7F" stroke-linecap="round" stroke-linejoin="round" stroke-miterlimit="10" stroke-dasharray="6,6" x1="381.488" y1="83.724" x2="335.5" y2="191.645"/>
<g opacity="0.5">
	<path fill="#FFFFFF" d="M190.479,222.812c0.972-0.951,1.557-2.151,1.557-3.461c0-3.072-3.193-5.562-7.134-5.562
		c-3.939,0-7.133,2.486-7.133,5.562c0,3.067,3.193,5.561,7.133,5.561c0.129,0,0.256-0.01,0.383-0.016l-0.028,0.016h6.779
		C191.218,224.428,190.723,223.434,190.479,222.812z M186.791,216.65c0.483,0,0.877,0.394,0.877,0.877
		c0,0.482-0.394,0.877-0.877,0.877c-0.484,0-0.877-0.394-0.877-0.877S186.307,216.65,186.791,216.65z M183.089,216.65
		c0.483,0,0.877,0.394,0.877,0.877c0,0.482-0.394,0.877-0.877,0.877c-0.484,0-0.877-0.394-0.877-0.877
		S182.604,216.65,183.089,216.65z M188.184,220.204c-0.043,0.052-0.087,0.104-0.132,0.155c-0.089,0.103-0.183,0.201-0.281,0.295
		c-0.375,0.354-0.83,0.617-1.312,0.794c-0.265,0.096-0.537,0.163-0.814,0.204c-0.286,0.046-0.588,0.084-0.879,0.084
		c-0.327,0-0.666-0.037-0.987-0.098c-0.539-0.104-1.063-0.312-1.528-0.604c-0.214-0.137-0.411-0.292-0.586-0.477
		c-0.087-0.092-0.166-0.188-0.243-0.285c-0.059-0.072-0.205-0.215-0.224-0.305c-0.003-0.017-0.01-0.029-0.01-0.047
		c0-0.134,0.108-0.242,0.243-0.242c0.161,0,0.256,0.176,0.362,0.271c0.089,0.081,0.181,0.156,0.275,0.229
		c0.768,0.57,1.749,0.826,2.696,0.826c1.291,0,2.432-0.479,3.147-1.217c0.006-0.006,0.013-0.014,0.019-0.021
		c0.043-0.039,0.099-0.062,0.162-0.062c0.111,0,0.217,0.081,0.239,0.188C188.355,220.021,188.254,220.119,188.184,220.204z"/>
	<g>
		<path fill="#FFFFFF" d="M194.426,223.818v-8.743c0-0.341,0.095-0.614,0.284-0.823c0.188-0.208,0.436-0.312,0.739-0.312
			c0.303,0,0.549,0.104,0.738,0.312s0.284,0.48,0.284,0.821v2.774c0.53-0.476,1.175-0.711,1.933-0.711
			c1.042,0,1.866,0.422,2.474,1.266c0.549,0.769,0.824,1.689,0.824,2.771c0,1.017-0.305,1.899-0.909,2.657
			c-0.646,0.807-1.459,1.208-2.444,1.208c-0.389,0-0.754-0.08-1.095-0.241c-0.341-0.16-0.603-0.396-0.781-0.693
			c-0.076,0.281-0.194,0.496-0.354,0.639c-0.161,0.143-0.385,0.214-0.668,0.214c-0.305,0-0.551-0.104-0.739-0.312
			C194.522,224.434,194.426,224.159,194.426,223.818z M196.473,221.031c0,0.568,0.123,1.047,0.369,1.436
			c0.294,0.465,0.701,0.696,1.222,0.696c0.503,0,0.9-0.224,1.194-0.668c0.266-0.397,0.396-0.867,0.396-1.407
			s-0.128-1.004-0.383-1.393c-0.304-0.454-0.706-0.682-1.209-0.682c-0.502,0-0.893,0.196-1.172,0.596
			C196.612,220.008,196.473,220.482,196.473,221.031z"/>
		<path fill="#FFFFFF" d="M203.748,214.152c0.304,0,0.568,0.106,0.797,0.326c0.227,0.22,0.341,0.479,0.341,0.78
			c0,0.332-0.112,0.613-0.334,0.849c-0.223,0.229-0.49,0.348-0.804,0.348c-0.312,0-0.585-0.121-0.816-0.362
			s-0.349-0.519-0.349-0.831c0-0.294,0.116-0.552,0.349-0.771C203.163,214.266,203.436,214.152,203.748,214.152z M202.726,223.816
			v-5.457c0-0.342,0.094-0.615,0.284-0.824c0.189-0.208,0.436-0.312,0.738-0.312c0.304,0,0.55,0.104,0.738,0.312
			c0.189,0.209,0.284,0.482,0.284,0.824v5.457c0,0.342-0.095,0.615-0.284,0.824c-0.188,0.209-0.436,0.312-0.738,0.312
			c-0.304,0-0.549-0.104-0.738-0.312C202.819,224.434,202.726,224.158,202.726,223.816z"/>
		<path fill="#FFFFFF" d="M205.71,223.618l3.212-4.521h-2.359c-0.256,0-0.476-0.082-0.66-0.248c-0.186-0.166-0.276-0.389-0.276-0.66
			c0-0.274,0.087-0.49,0.263-0.646c0.175-0.156,0.4-0.234,0.675-0.234h4.633c0.161,0,0.3,0.033,0.412,0.102
			c0.182,0.111,0.271,0.29,0.271,0.523c0,0.145-0.015,0.252-0.043,0.326c-0.028,0.076-0.09,0.176-0.186,0.299l-3.212,4.521h2.7
			c0.256,0,0.472,0.078,0.646,0.232c0.176,0.155,0.264,0.373,0.264,0.646c0,0.284-0.086,0.507-0.257,0.668
			c-0.17,0.161-0.389,0.242-0.653,0.242h-4.774c-0.246,0-0.445-0.062-0.598-0.179c-0.151-0.117-0.228-0.297-0.228-0.532
			c0-0.114,0.023-0.224,0.07-0.327C205.658,223.729,205.69,223.656,205.71,223.618z"/>
		<path fill="#FFFFFF" d="M218.87,218.417c0,0.235-0.071,0.462-0.215,0.675c-0.142,0.213-0.325,0.319-0.554,0.319
			c-0.143,0-0.46-0.085-0.953-0.257c-0.273-0.094-0.496-0.141-0.668-0.141c-0.549,0-0.983,0.213-1.307,0.639
			c-0.284,0.38-0.427,0.855-0.427,1.436c0,0.561,0.146,1.033,0.439,1.422c0.332,0.438,0.764,0.653,1.293,0.653
			c0.172,0,0.393-0.045,0.662-0.136c0.271-0.09,0.551-0.188,0.845-0.291c0.246,0,0.455,0.086,0.625,0.256
			c0.173,0.171,0.258,0.38,0.258,0.626c0,0.464-0.322,0.834-0.968,1.108c-0.492,0.207-1.004,0.312-1.534,0.312
			c-1.079,0-1.962-0.381-2.645-1.144c-0.682-0.766-1.022-1.699-1.022-2.811c0-1.068,0.347-1.996,1.037-2.775
			c0.691-0.781,1.567-1.172,2.63-1.172c0.577,0,1.095,0.084,1.549,0.256C218.553,217.63,218.87,217.971,218.87,218.417z"/>
		<path fill="#FFFFFF" d="M219.751,223.818v-8.743c0-0.341,0.095-0.614,0.284-0.823c0.188-0.208,0.436-0.312,0.738-0.312
			c0.304,0,0.551,0.104,0.739,0.312c0.189,0.208,0.284,0.48,0.284,0.82v2.775c0.208-0.246,0.482-0.428,0.824-0.539
			c0.341-0.115,0.69-0.172,1.052-0.172c0.833,0,1.511,0.245,2.032,0.737c0.521,0.493,0.78,1.166,0.78,2.021v3.922
			c0,0.343-0.095,0.615-0.283,0.824c-0.189,0.209-0.437,0.312-0.739,0.312c-0.302,0-0.549-0.104-0.738-0.312
			c-0.188-0.209-0.285-0.481-0.285-0.824v-3.582c0-0.452-0.123-0.799-0.369-1.035c-0.245-0.237-0.567-0.355-0.967-0.355
			c-0.407,0-0.727,0.133-0.959,0.393c-0.23,0.262-0.348,0.596-0.348,1.003v3.581c0,0.342-0.095,0.615-0.284,0.824
			c-0.188,0.207-0.437,0.312-0.739,0.312c-0.304,0-0.55-0.104-0.738-0.312C219.846,224.434,219.751,224.159,219.751,223.818z"/>
		<path fill="#FFFFFF" d="M234.759,218.559v5.062c0,0.396-0.038,0.684-0.113,0.854c-0.151,0.32-0.445,0.481-0.882,0.481
			c-0.284,0-0.497-0.071-0.64-0.214c-0.144-0.143-0.251-0.364-0.326-0.667c-0.275,0.312-0.573,0.552-0.896,0.717
			c-0.32,0.166-0.677,0.249-1.064,0.249c-0.957,0-1.76-0.371-2.408-1.115c-0.649-0.742-0.974-1.688-0.974-2.836
			c0-1.115,0.325-2.056,0.979-2.812c0.653-0.758,1.454-1.137,2.401-1.137c0.407,0,0.778,0.075,1.116,0.229
			c0.336,0.149,0.616,0.388,0.846,0.71c0.028-0.255,0.135-0.461,0.319-0.618c0.185-0.155,0.399-0.233,0.646-0.233
			c0.436,0,0.725,0.15,0.867,0.455C234.716,217.857,234.759,218.15,234.759,218.559z M229.5,221.088
			c0,0.561,0.128,1.028,0.384,1.407c0.304,0.444,0.716,0.668,1.236,0.668c0.503,0,0.899-0.218,1.193-0.653
			c0.266-0.398,0.397-0.871,0.397-1.422c0-0.54-0.128-1.004-0.384-1.393c-0.305-0.454-0.705-0.682-1.208-0.682
			c-0.513,0-0.919,0.223-1.223,0.668C229.633,220.079,229.5,220.548,229.5,221.088z"/>
		<path fill="#FFFFFF" d="M236.577,223.816v-4.719h-0.455c-0.266,0-0.482-0.08-0.653-0.24c-0.17-0.162-0.256-0.385-0.256-0.668
			c0-0.256,0.088-0.467,0.264-0.633c0.175-0.166,0.392-0.248,0.646-0.248h0.455v-1.226c0-0.341,0.095-0.615,0.283-0.824
			c0.189-0.208,0.438-0.312,0.739-0.312c0.304,0,0.55,0.104,0.739,0.312c0.188,0.209,0.284,0.483,0.284,0.824v1.226h0.597
			c0.285,0,0.517,0.065,0.696,0.205c0.18,0.137,0.271,0.359,0.271,0.676c0,0.303-0.091,0.527-0.271,0.682
			c-0.181,0.152-0.411,0.229-0.696,0.229h-0.597v4.719c0,0.343-0.096,0.615-0.284,0.824c-0.189,0.207-0.437,0.312-0.739,0.312
			c-0.302,0-0.55-0.104-0.739-0.312C236.672,224.436,236.577,224.158,236.577,223.816z"/>
	</g>
</g>
<g>
	<g>
		<path fill="#91DC5A" d="M93.973,86.709c-17.729,0-32.102,14.373-32.102,32.102c0,17.73,14.373,32.102,32.102,32.102
			c7.12,0,13.695-2.318,19.02-6.24c-0.284-0.02-0.56-0.142-0.765-0.371l-5.257-5.875l-2.832,4.345l-2.337-11.811l12.023,3.739
			l-5.175,2.225l5.258,5.875c0.244,0.272,0.328,0.629,0.263,0.963c7.261-5.886,11.904-14.876,11.904-24.952
			C126.075,101.083,111.704,86.709,93.973,86.709z"/>
		<g enable-background="new    ">
			<path fill="#FFFFFF" d="M73.86,121.085l0.294,1.636l0.033,0.011l0.359-1.647l2.377-7.545h1.635l2.377,7.545l0.381,1.789h0.033
				l0.371-1.789l1.908-7.545h2.007l-3.424,11.798h-1.636l-2.333-7.272l-0.512-2.105h-0.032l-0.491,2.105l-2.29,7.272h-1.646
				l-3.424-11.798h2.018L73.86,121.085z"/>
			<path fill="#FFFFFF" d="M90.762,121.085l0.294,1.636l0.033,0.011l0.36-1.647l2.376-7.545h1.636l2.377,7.545l0.382,1.789h0.032
				l0.371-1.789l1.908-7.545h2.005l-3.423,11.798h-1.636l-2.333-7.272l-0.512-2.105H94.6l-0.49,2.105l-2.291,7.272h-1.646
				l-3.424-11.798h2.018L90.762,121.085z"/>
			<path fill="#FFFFFF" d="M107.664,121.085l0.294,1.636l0.034,0.011l0.36-1.647l2.376-7.545h1.636l2.378,7.545l0.381,1.789h0.032
				l0.371-1.789l1.909-7.545h2.007l-3.425,11.798h-1.634l-2.334-7.272l-0.513-2.105h-0.032l-0.491,2.105l-2.289,7.272h-1.647
				l-3.423-11.798h2.017L107.664,121.085z"/>
		</g>
	</g>
</g>
</svg>
